<?xml version="1.0" encoding="UTF-8" standalone="no"?>
<svg
   xmlns:dc="http://purl.org/dc/elements/1.1/"
   xmlns:cc="http://creativecommons.org/ns#"
   xmlns:rdf="http://www.w3.org/1999/02/22-rdf-syntax-ns#"
   xmlns:svg="http://www.w3.org/2000/svg"
   xmlns="http://www.w3.org/2000/svg"
   width="101"
   height="63"
   viewBox="0 0 101 63"
   version="1.1"
   id="svg1157">
  <defs
     id="defs1151" />
  <metadata
     id="metadata1154">
    <rdf:RDF>
      <cc:Work
         rdf:about="">
        <dc:format>image/svg+xml</dc:format>
        <dc:type
           rdf:resource="http://purl.org/dc/dcmitype/StillImage" />
        <dc:title></dc:title>
      </cc:Work>
    </rdf:RDF>
  </metadata>
  <g
     id="layer2"
     style="display:inline">
    <path
       id="path1715"
       style="fill:#ffff00;fill-rule:evenodd;stroke:#000000;stroke-width:1;stroke-miterlimit:4;stroke-dasharray:none;stop-color:#000000"
       d="m 80.5,16.5 v 40 h 8 v -40 z m 2,2 h 4 v 0.951172 l -2,3.357422 -2,-3.357422 z m 0,4.083984 L 83.566406,24.375 82.5,26.166016 Z m 4,0 v 3.582032 L 85.433594,24.375 Z m -2,3.357422 2,3.357422 v 2.277344 l -2,3.357422 -2,-3.357422 v -2.277344 z m -2,8.767578 L 83.566406,36.5 82.5,38.291016 Z m 4,0 v 3.582032 L 85.433594,36.5 Z m -2,3.357422 2,3.357422 v 2.277344 l -2,3.357422 -2,-3.357422 v -2.277344 z m -2,8.767578 L 83.566406,48.625 82.5,50.416016 Z m 4,0 v 3.582032 L 85.433594,48.625 Z m -2,3.357422 2,3.357422 V 54.5 h -4 V 53.548828 Z M 57.833984,16.5 v 40 h 8 v -40 z m 2,2 h 4 v 0.951172 l -2,3.357422 -2,-3.357422 z m 0,4.083984 1.066407,1.791016 -1.066407,1.791016 z m 4,0 v 3.582032 L 62.767578,24.375 Z m -2,3.357422 2,3.357422 v 2.277344 l -2,3.357422 -2,-3.357422 v -2.277344 z m -2,8.767578 1.066407,1.791016 -1.066407,1.791016 z m 4,0 v 3.582032 L 62.767578,36.5 Z m -2,3.357422 2,3.357422 v 2.277344 l -2,3.357422 -2,-3.357422 v -2.277344 z m -2,8.767578 1.066407,1.791016 -1.066407,1.791016 z m 4,0 v 3.582032 L 62.767578,48.625 Z m -2,3.357422 2,3.357422 V 54.5 h -4 V 53.548828 Z M 35.166016,16.5 v 40 h 8 v -40 z m 2,2 h 4 v 0.951172 l -2,3.357422 -2,-3.357422 z m 0,4.083984 1.066406,1.791016 -1.066406,1.791016 z m 4,0 v 3.582032 L 40.099609,24.375 Z m -2,3.357422 2,3.357422 v 2.277344 l -2,3.357422 -2,-3.357422 v -2.277344 z m -2,8.767578 1.066406,1.791016 -1.066406,1.791016 z m 4,0 v 3.582032 L 40.099609,36.5 Z m -2,3.357422 2,3.357422 v 2.277344 l -2,3.357422 -2,-3.357422 v -2.277344 z m -2,8.767578 1.066406,1.791016 -1.066406,1.791016 z m 4,0 v 3.582032 L 40.099609,48.625 Z m -2,3.357422 2,3.357422 V 54.5 h -4 V 53.548828 Z M 12.5,16.5 v 40 h 8 v -40 z m 2,2 h 4 v 0.951172 l -2,3.357422 -2,-3.357422 z m 0,4.083984 L 15.566406,24.375 14.5,26.166016 Z m 4,0 v 3.582032 L 17.433594,24.375 Z m -2,3.357422 2,3.357422 v 2.277344 l -2,3.357422 -2,-3.357422 v -2.277344 z m -2,8.767578 L 15.566406,36.5 14.5,38.291016 Z m 4,0 v 3.582032 L 17.433594,36.5 Z m -2,3.357422 2,3.357422 v 2.277344 l -2,3.357422 -2,-3.357422 v -2.277344 z m -2,8.767578 L 15.566406,48.625 14.5,50.416016 Z m 4,0 v 3.582032 L 17.433594,48.625 Z m -2,3.357422 2,3.357422 V 54.5 h -4 V 53.548828 Z M 4.5,8.5 h 92 v 4 h -92 z m -2,-2 h 96 v 8 h -96 z m -2,-2 v 12 h 100 v -12 z m 4,46 c -2.216,0 -4,1.784 -4,4 v 2 1 5 h 100 v -5 -1 -2 c 0,-2.216 -1.784,-4 -4,-4 h -8 v 3.441406 L 91.058594,56.5 l -4,4 H 86.15625 l -4,-4 H 80.5 V 54.84375 L 78.15625,52.5 H 80.5 v -2 H 65.833984 v 4.847656 L 66.986328,56.5 l -4,4 h -0.902344 l -4,-4 h -0.25 V 53.617188 L 56.517578,54.933594 54.083984,52.5 h 3.75 v -2 H 43.166016 v 2 h 3.75 l -2.433594,2.433594 -1.316406,-1.316406 V 56.5 h -0.25 l -4,4 h -0.902344 l -4,-4 1.152344,-1.152344 V 50.5 H 20.5 v 2 h 2.34375 L 20.5,54.84375 V 56.5 h -1.65625 l -4,4 H 13.941406 L 9.9414062,56.5 12.5,53.941406 V 50.5 Z m 1.8398438,2 H 10.808594 L 8.375,54.933594 5.9667969,52.525391 C 6.0914291,52.516991 6.2119296,52.5 6.3398438,52.5 Z m 19.6367182,0 h 0.904297 l 3.998047,4 -3.998047,4 h -0.904297 l -4,-4 z m 4.03711,0 h 4.865234 l -2.43164,2.433594 z m 20.035156,0 h 0.902344 l 4,4 -4,4 h -0.902344 l -4,-4 z m 16.072266,0 h 4.865234 l -2.433594,2.433594 z m 7.998047,0 h 0.904297 l 4,4 -4,4 h -0.904297 l -3.998047,-4 z m 16.072265,0 h 4.46875 c 0.127914,0 0.248415,0.01699 0.373047,0.02539 L 92.625,54.933594 Z M 3.6035156,53.294922 6.8085938,56.5 l -4,4 H 2.5 V 57.166016 56.5 55.166016 c 0,-0.73113 0.4219435,-1.390455 1.1035156,-1.871094 z m 93.7929684,0 C 98.078057,53.775561 98.5,54.434886 98.5,55.166016 V 56.5 57.166016 60.5 h -0.308594 l -4,-4 z M 8.375,58.066406 10.808594,60.5 H 5.9414062 Z m 12.035156,0 L 22.84375,60.5 h -4.867188 z m 12.03711,0 2.43164,2.433594 h -4.865234 z m 12.035156,0 L 46.916016,60.5 h -4.867188 z m 12.035156,0 L 58.951172,60.5 h -4.867188 z m 12.035156,0 L 70.986328,60.5 h -4.865234 z m 12.03711,0 L 83.023438,60.5 H 78.15625 Z m 12.035156,0 L 95.058594,60.5 H 90.191406 Z M 6.7675781,0.50000005 A 5.7669902,5.75 0 0 0 1.2753906,4.5 H 12.259766 A 5.7669902,5.75 0 0 0 6.7675781,0.50000005 Z m 12.4941409,0 A 5.7669902,5.75 0 0 0 13.769531,4.5 h 10.986328 a 5.7669902,5.75 0 0 0 -5.49414,-3.99999995 z m 12.496093,0 A 5.7669902,5.75 0 0 0 26.265625,4.5 H 37.25 A 5.7669902,5.75 0 0 0 31.757812,0.50000005 Z m 12.494141,0 A 5.7669902,5.75 0 0 0 38.759766,4.5 H 49.746094 A 5.7669902,5.75 0 0 0 44.251953,0.50000005 Z m 12.496094,0 A 5.7669902,5.75 0 0 0 51.255859,4.5 H 62.240234 A 5.7669902,5.75 0 0 0 56.748047,0.50000005 Z m 12.494141,0 A 5.7669902,5.75 0 0 0 63.75,4.5 h 10.986328 a 5.7669902,5.75 0 0 0 -5.49414,-3.99999995 z m 12.496093,0 A 5.7669902,5.75 0 0 0 76.246094,4.5 H 87.230469 A 5.7669902,5.75 0 0 0 81.738281,0.50000005 Z m 12.494141,0 A 5.7669902,5.75 0 0 0 88.740234,4.5 h 10.986328 a 5.7669902,5.75 0 0 0 -5.49414,-3.99999995 z" />
  </g>
</svg>
