<?xml version="1.0" encoding="UTF-8" standalone="no"?>
<svg
   xmlns:dc="http://purl.org/dc/elements/1.1/"
   xmlns:cc="http://creativecommons.org/ns#"
   xmlns:rdf="http://www.w3.org/1999/02/22-rdf-syntax-ns#"
   xmlns:svg="http://www.w3.org/2000/svg"
   xmlns="http://www.w3.org/2000/svg"
   width="45"
   height="60"
   viewBox="0 0 45 60.000003"
   version="1.1"
   id="svg838">
  <defs
     id="defs832" />
  <metadata
     id="metadata835">
    <rdf:RDF>
      <cc:Work
         rdf:about="">
        <dc:format>image/svg+xml</dc:format>
        <dc:type
           rdf:resource="http://purl.org/dc/dcmitype/StillImage" />
        <dc:title></dc:title>
      </cc:Work>
    </rdf:RDF>
  </metadata>
  <g
     id="layer1">
    <path
       id="path853"
       style="fill:#ffff00;fill-rule:evenodd;stroke:#000000;stroke-width:1;stroke-miterlimit:4;stroke-dasharray:none;stop-color:#000000"
       d="m 29.684327,19.799763 a 1.5214148,2.5 0 0 1 -1.521415,2.5 1.5214148,2.5 0 0 1 -1.521414,-2.5 1.5214148,2.5 0 0 1 1.521414,-2.5 1.5214148,2.5 0 0 1 1.521415,2.5 z M 5.8867188,5.5 v 53.734375 l 26.0839842,-17 V 5.5 Z M 28.162109,17.298828 a 1.5214148,2.5 0 0 1 1.521485,2.5 1.5214148,2.5 0 0 1 -1.521485,2.5 1.5214148,2.5 0 0 1 -1.521484,-2.5 1.5214148,2.5 0 0 1 1.521484,-2.5 z M 0.5,0.5 v 59 H 5.8574219 V 5.5 H 39.857422 v 54 H 44.5 v -59 z" />
  </g>
</svg>
