<?xml version="1.0" encoding="UTF-8" standalone="no"?>
<svg
   xmlns:dc="http://purl.org/dc/elements/1.1/"
   xmlns:cc="http://creativecommons.org/ns#"
   xmlns:rdf="http://www.w3.org/1999/02/22-rdf-syntax-ns#"
   xmlns:svg="http://www.w3.org/2000/svg"
   xmlns="http://www.w3.org/2000/svg"
   xmlns:sodipodi="http://sodipodi.sourceforge.net/DTD/sodipodi-0.dtd"
   xmlns:inkscape="http://www.inkscape.org/namespaces/inkscape"
   width="70"
   height="70"
   viewBox="0 0 70 70.000003"
   version="1.1"
   id="svg1097"
   inkscape:version="1.0.1 (3bc2e813f5, 2020-09-07)"
   sodipodi:docname="frezovacka.svg">
  <defs
     id="defs1091" />
  <sodipodi:namedview
     id="base"
     pagecolor="#ffffff"
     bordercolor="#666666"
     borderopacity="1.0"
     inkscape:pageopacity="0.0"
     inkscape:pageshadow="2"
     inkscape:zoom="5.6568543"
     inkscape:cx="43.36973"
     inkscape:cy="19.261521"
     inkscape:document-units="px"
     inkscape:current-layer="layer1"
     inkscape:document-rotation="0"
     showgrid="false"
     units="px"
     inkscape:window-width="1920"
     inkscape:window-height="1001"
     inkscape:window-x="-9"
     inkscape:window-y="-9"
     inkscape:window-maximized="1" />
  <metadata
     id="metadata1094">
    <rdf:RDF>
      <cc:Work
         rdf:about="">
        <dc:format>image/svg+xml</dc:format>
        <dc:type
           rdf:resource="http://purl.org/dc/dcmitype/StillImage" />
        <dc:title></dc:title>
      </cc:Work>
    </rdf:RDF>
  </metadata>
  <g
     inkscape:label="Vrstva 1"
     inkscape:groupmode="layer"
     id="layer1">
    <path
       id="rect28485"
       style="fill:#ffff00;fill-opacity:1;stroke:#000000;stroke-width:0.5;stroke-linejoin:miter;stroke-miterlimit:4;stroke-dasharray:none;stroke-dashoffset:0;stroke-opacity:1"
       d="M 11.227018,3.0947598 V 6.7343144 H 27.60004 V 3.0947598 Z m 7.996281,4.4559509 h 1.631708 V 22.632807 H 19.223299 Z M 13.491355,10.49567 h 2.476903 v 6.177121 h -2.476903 z m 2.476903,-1.222429 h 2.727627 v 8.559172 h -2.727627 z m 2.727054,-1.10958 v 10.779297 h 0.527344 V 8.163661 Z m 2.160157,0 v 10.779297 h 0.527343 V 8.163661 Z m 0.52696,-0.7351074 h 2.838629 V 19.739908 H 21.382429 Z M 4.5534155,12.853548 v 1.524962 h 0.7592819 v -1.524962 z m 6.6736025,0 v 1.524962 h 2.264921 V 12.853548 Z M 42.174099,8.4302878 h 2.571338 V 18.99915 h -2.571338 z m 11.171555,3.1860772 h 2.721255 v 3.77923 H 53.345654 Z M 53.132909,2.5148219 v 4.4844223 c 1.262521,0.8136883 1.159706,2.9046835 0.478186,4.6168878 h 2.166376 C 55.285806,9.9528686 55.076427,8.1778664 56.218504,6.8877799 v -4.372958 z m 2.933735,10.3387261 v 1.524962 h 0.481417 v -1.524962 z m 0.145617,-9.9701088 h 2.721256 V 6.6626686 H 56.212261 Z M 44.745269,12.853548 v 1.524962 h 8.600884 V 12.853548 Z M 32.815319,3.0838402 H 53.135954 V 6.6971549 H 32.815319 Z M 0.2499999,69.75 V 67.465787 H 69.75 v 0.198619 2.085594 0 z M 32.790695,57.547809 h 1.111311 v 6.845295 h -1.111311 z m -0.03773,-35.20995 h 1.133841 V 34.539192 H 32.752964 Z M 3.5889658,3.1383763 v 3.8640988 h 1.725347 V 3.1383763 H 5.2076905 Z M 49.572362,27.612079 c 0.0041,-0.01819 0.0081,0.03877 0.0081,0.03877 h 2.810959 l 0.767359,-0.0017 c -2.02e-4,-0.0027 -0.0026,-0.01314 -0.0049,-0.02423 z m 3.581548,0.01293 0.901445,0.0032 h -0.891752 v 0.021 l 3.576702,-0.0097 v -0.01131 h 0.891752 l -4.481378,-0.01615 c 0.0014,-0.0061 0.002,0.0069 0.0032,0.01293 z m 3.586395,0.01454 v 1.001562 h 0.911138 v 1.064566 h -2.662332 v -0.988641 h 0.980604 v -1.066181 h -2.806112 v 0.990256 h 0.911138 v 1.064566 h -2.663948 v -0.988641 h 0.980605 v -1.066181 l -1.938592,0.0049 -0.891752,0.0032 v 1.008026 h 0.911137 v 1.06457 h -2.663948 v -0.98864 h 0.98222 v -1.064566 h -2.812574 c 0,0 -0.0012,-0.005 -0.0017,-0.0097 h -0.04361 v 0.998333 h 0.911137 v 1.064566 h -2.662332 v -0.98864 h 0.980604 v -1.064567 h -2.579942 l 3.350533,-0.0097 v -0.01293 h 0.04039 c -2.57e-4,-0.0017 2.77e-4,-0.0017 0,-0.0032 l -3.630013,-0.01454 c 0.002,-0.0087 0.0019,0.008 0.0032,0.01939 l 0.869136,0.0032 h -0.86752 c 0.0011,0.01095 0.0032,0.01777 0.0032,0.01777 h -0.02746 v 0.993487 h 0.911138 v 1.066182 h -2.663907 v -0.988641 h 0.98222 v -1.066181 h -0.743127 l -1.180925,0.0032 H 38.73725 v 1.011256 h 0.911138 v 1.066182 h -2.663949 v -0.990257 h 0.98222 V 27.70899 h -2.714028 c 0,0 -0.02884,0.611822 -0.0081,4.111259 l 0.05008,0.05008 h 6.74953 l -1.893358,1.368266 H 55.36065 l -2.103371,-1.44096 h 6.578287 l 0.08078,-0.08885 v -4.043411 c 0,0 -0.04955,-0.02585 -3.158289,-0.02585 z m -15.930378,0.04361 1.513718,-0.0049 v -0.01777 h 0.02424 c -2.06e-4,-0.0022 -0.0014,-0.0012 -0.0017,-0.0032 l -3.613857,-0.01293 c 0.0041,-0.01819 0.0081,0.03877 0.0081,0.03877 z m 5.163116,-0.03069 0.852981,0.0032 h -0.852981 c 0.0011,0.0074 0.0026,0.0065 0.0032,0.01293 l 3.58478,-0.0097 v -0.0032 h 0.891752 l -4.482993,-0.01777 c 0.0015,-0.0066 0.0019,0.0076 0.0032,0.01454 z m 7.19056,-0.0017 v -0.0017 h -0.0049 c 0,0 0,0.0017 0,0.0017 z M 35.245102,35.71547 v -3.845901 h 6.798822 L 40.15147,33.238912 H 55.361212 L 53.256639,31.79696 h 6.660485 v 3.91851 z m 8.105683,31.750185 c 0,0 -0.236047,0.159811 1.15203,-0.94501 1.388078,-1.104829 1.246547,-3.18996 1.246547,-3.18996 0,-2.812282 0,-2.884504 0,-2.884504 l 4.719461,-0.0282 0.115054,2.986014 c 0,0 0.202689,0.975603 0.452681,1.47943 0.291134,0.586727 0.619588,1.023154 0.855354,1.416993 0.179786,0.300328 1.085454,1.145547 1.085454,1.145547 m 6.938998,-33.265564 v 1.534654 h -24.67181 v -1.256801 l -1.261701,0.07431 -1.161539,0.0065 V 57.48942 l 8.943369,-0.239083 c 0,0 0.593657,-3.198846 1.508871,-4.876971 2.87207,-5.972999 8.23748,-9.3286 12.479685,-10.359726 7.296036,-1.700269 7.830295,-3.833406 7.830295,-3.833406 V 34.18044 Z M 49.253906,45.155849 c -0.847431,0.630257 -1.672178,1.348033 -2.451172,2.15625 v 13.128906 l 2.451172,-0.01563 z M 27.60004,2.8039831 V 22.602643 H 11.227018 V 2.8782928 l -5.9127052,0.021 V 25.688106 l 3.7560218,4.242109 -0.2762498,35.608834 c -0.048329,0.357706 -0.118194,1.263415 -1.3263194,1.927203 H 34.80514 c -2.253711,-1.265233 -1.722626,-1.676831 -1.983826,-2.1259 v -0.946641 h -0.0307 v -6.846174 h 0.0307 V 34.539025 h -0.06785 V 22.337713 h 0.06785 V 2.8039831 Z M 24.220703,12.853114 v 1.525391 h 3.378906 v -1.525391 z m 8.601563,0 v 1.525391 h 9.351562 v -1.525391 z" />
  </g>
</svg>
