<?xml version="1.0" encoding="UTF-8" standalone="no"?>
<svg
   xmlns:dc="http://purl.org/dc/elements/1.1/"
   xmlns:cc="http://creativecommons.org/ns#"
   xmlns:rdf="http://www.w3.org/1999/02/22-rdf-syntax-ns#"
   xmlns:svg="http://www.w3.org/2000/svg"
   xmlns="http://www.w3.org/2000/svg"
   id="svg2443"
   xml:space="preserve"
   viewBox="0 0 50 45"
   version="1.1"
   width="50"
   height="45">
  <defs
   id="defs2446" />
  
  <g
   id="layer1"><path
     id="path3457"
     d="m 6.2130973,26.687838 h 5.8864217 v 1.244619 H 6.2130973 Z m 35.6208717,0 H 35.94754 v 1.244619 h 5.886429 z M 8.3536915,24.809225 H 39.888285 M 8.3542086,2.7387066 V 24.803398 H 39.888649 V 2.7387066 Z M 8.353522,2.739573 H 39.887833 V 24.80277 H 8.353522 Z M 4.8766997,0.399999 v 26.740474 h 1.3364942 v -0.45261 h 5.8862321 v 0.45261 h 23.848039 v -0.45261 h 5.886441 v 0.45261 h 0.005 1.33765 V 0.399999 Z m 34.8423223,34.151157 1.395096,3.564279 m 8.485883,3.469662 H 0.40656067 M 7.4776038,30.986891 5.2225142,38.115435 H 44.133643 L 40.884786,30.986891 Z M 6.9042757,32.759436 H 41.687436 M 6.3309476,34.532622 H 42.528317 M 5.7958423,36.305168 H 43.330992 M 8.2038185,38.115435 10.038468,30.986891 m 5.160589,0 -0.994406,7.128544 m 3.55527,-7.128544 -0.429995,5.34643 m 2.990859,-5.34643 -0.114666,5.34643 m 2.675529,-5.34643 0.229332,5.34643 m 2.369754,-5.34643 0.515995,5.34643 m 2.044871,-5.34643 0.831324,5.34643 m 1.730178,-5.34643 1.175328,5.34643 m 1.385532,-5.34643 1.987542,7.128544 m 3.172422,-7.128544 0.697535,1.782101 m -3.258396,-1.782101 2.369746,7.128544 M 12.599332,30.986891 11.185121,38.115435 M 0.40655941,44.599688 V 41.58516 H 49.600001 v 3.014528 M 4.8720809,27.479784 0.40023621,41.585398 H 49.5936 L 43.171732,27.479784 h -1.337826 v 0.45261 h -5.886441 v -0.45261 H 12.099426 v 0.45261 H 6.2131939 v -0.45261 h -0.00326 z M 35.956527,44.600002 H 0.39999899 V 41.585474 H 49.59345 v 3.014528 H 35.909385"
     style="fill:#ffff00;stroke:#000000" /></g>
<metadata
   id="metadata26"><rdf:RDF><cc:Work><dc:format>image/svg+xml</dc:format><dc:type
         rdf:resource="http://purl.org/dc/dcmitype/StillImage" /><cc:license
         rdf:resource="http://creativecommons.org/publicdomain/zero/1.0/" /><dc:publisher><cc:Agent
           rdf:about="http://openclipart.org/"><dc:title>Openclipart</dc:title></cc:Agent></dc:publisher><dc:title></dc:title><dc:date>2010-03-18T18:22:51</dc:date><dc:description>Simple Wire frame laptop</dc:description><dc:source>https://openclipart.org/detail/32353/laptop-by-deusinvictus</dc:source><dc:creator><cc:Agent><dc:title>deusinvictus</dc:title></cc:Agent></dc:creator><dc:subject><rdf:Bag><rdf:li>laptop</rdf:li><rdf:li>notebook</rdf:li><rdf:li>portable computer</rdf:li></rdf:Bag></dc:subject></cc:Work><cc:License
       rdf:about="http://creativecommons.org/publicdomain/zero/1.0/"><cc:permits
         rdf:resource="http://creativecommons.org/ns#Reproduction" /><cc:permits
         rdf:resource="http://creativecommons.org/ns#Distribution" /><cc:permits
         rdf:resource="http://creativecommons.org/ns#DerivativeWorks" /></cc:License></rdf:RDF></metadata></svg>
