<?xml version="1.0" encoding="UTF-8" standalone="no"?>
<svg
   xmlns:dc="http://purl.org/dc/elements/1.1/"
   xmlns:cc="http://creativecommons.org/ns#"
   xmlns:rdf="http://www.w3.org/1999/02/22-rdf-syntax-ns#"
   xmlns:svg="http://www.w3.org/2000/svg"
   xmlns="http://www.w3.org/2000/svg"
   xmlns:sodipodi="http://sodipodi.sourceforge.net/DTD/sodipodi-0.dtd"
   xmlns:inkscape="http://www.inkscape.org/namespaces/inkscape"
   id="svg3455"
   sodipodi:docname="pocitac-3.svg"
   viewBox="0 0 45.000001 45"
   sodipodi:version="0.32"
   version="1.0"
   inkscape:output_extension="org.inkscape.output.svg.inkscape"
   inkscape:version="1.0.1 (3bc2e813f5, 2020-09-07)"
   width="45"
   height="45">
  <defs
     id="defs20" />
  <sodipodi:namedview
     id="base"
     bordercolor="#666666"
     inkscape:pageshadow="2"
     inkscape:window-y="-9"
     pagecolor="#ffffff"
     inkscape:window-height="1001"
     inkscape:zoom="7.649398"
     inkscape:window-x="-9"
     showgrid="false"
     borderopacity="1.0"
     inkscape:current-layer="layer1"
     inkscape:cx="19.487188"
     inkscape:cy="17.722588"
     inkscape:window-width="1920"
     inkscape:pageopacity="0.0"
     inkscape:document-units="px"
     inkscape:document-rotation="0"
     inkscape:window-maximized="1" />
  <g
     id="layer1"
     inkscape:label="Calque 1"
     inkscape:groupmode="layer"
     transform="translate(-290.55,-559.43)">
    <path
       id="path4003"
       style="fill:#ffff00;stroke:#000000;stroke-width:0.999979;stroke-linecap:round;stroke-linejoin:round"
       d="m 313.79061,561.4685 a 0.36845185,0.28742587 0 0 1 -0.36846,0.28742 0.36845185,0.28742587 0 0 1 -0.36844,-0.28742 0.36845185,0.28742587 0 0 1 0.36844,-0.28742 0.36845185,0.28742587 0 0 1 0.36846,0.28742 z m 6.66961,39.59247 0.25714,1.22128 4.20558,-0.0704 -0.43017,-1.22127 z m 4.80638,-2.37011 1.28811,3.59139 h 6.43574 l -1.88891,-3.59139 z m -5.23655,0.0704 0.34365,1.65385 h 4.11907 l -0.51428,-1.72427 z m -23.85887,0.0724 -2.91987,3.59341 26.17794,-0.0724 -0.42777,-3.66382 z m -4.97941,3.95154 c 0.23072,0.21327 0.39413,0.53921 0.77383,0.50299 l 42.13993,-0.0704 c 0.63204,0.0664 0.76902,-0.27966 0.70173,-0.55933 m -40.0107,-4.54306 -3.74657,4.74224 0.0673,0.71828 c 0.13457,0.28771 0.34365,0.29576 0.57195,0.3541 l 42.74073,-0.0161 c 0.53832,-0.0684 0.47583,-0.17303 0.56235,-0.44263 l 0.0577,-0.75651 c -0.99732,-1.54118 -2.07635,-3.2916 -2.99678,-4.62152 -0.0985,-0.19919 -0.31001,-0.30381 -0.52149,-0.40844 l -36.00458,0.14084 c -0.39653,-0.0322 -0.55513,0.13682 -0.73057,0.28973 z m 8.9687,-3.78856 c -0.0769,0.72834 0.50468,0.82491 1.21362,0.91344 l 15.9019,-0.15291 c 0.94926,-0.0302 1.7399,-0.23943 1.69905,-0.86314 m -27.67512,-32.11122 -0.0601,19.40958 h 36.71592 v -19.35928 z m 20.80946,23.78249 a 1.8768555,1.606475 0 0 0 -1.87686,-1.60646 1.8768555,1.606475 0 0 0 -1.87686,1.60646 1.8768555,1.606475 0 0 0 1.87686,1.60648 1.8768555,1.606475 0 0 0 1.87686,-1.60648 z m -22.45084,-23.97564 -0.11776,19.72345 c 0.0193,0.68207 0.41816,1.34803 1.29772,1.4265 l 36.95144,0.0523 c 1.34098,0.12676 1.91053,-0.34002 1.95139,-1.2776 l 0.0265,-19.61078 c 0.14899,-1.13879 -0.95888,-1.5613 -2.14845,-1.47881 l -36.03823,0.0724 c -1.23044,-0.0483 -1.85767,0.33801 -1.92255,1.0925 z m -1.01656,-0.14889 -0.089,25.63265 c 0.54552,1.51703 1.41307,1.94156 2.61948,1.92546 l 37.19896,-0.0463 c 1.8096,-0.0121 2.30707,-1.24339 2.20133,-2.53911 l 0.16582,-24.9365 c -0.0529,-1.57336 -1.04058,-1.77859 -2.47049,-1.87718 l -36.95143,0.0302 c -1.69666,0.0704 -2.47529,0.65189 -2.67476,1.81078 z m 25.56874,27.52964 -9.15653,0.011 -0.11359,1.23471 -4.87865,3.8931 c -0.63445,0.78064 0.11533,1.72637 1.36258,1.65596 l 16.24078,-0.0523 c 1.10787,0.0704 1.97765,-1.04408 1.26871,-1.81668 l -4.48439,-3.62786 z" />
  </g>
  <metadata
     id="metadata17">
    <rdf:RDF>
      <cc:Work>
        <dc:format>image/svg+xml</dc:format>
        <dc:type
           rdf:resource="http://purl.org/dc/dcmitype/StillImage" />
        <cc:license
           rdf:resource="http://creativecommons.org/publicdomain/zero/1.0/" />
        <dc:publisher>
          <cc:Agent
             rdf:about="http://openclipart.org/">
            <dc:title>Openclipart</dc:title>
          </cc:Agent>
        </dc:publisher>
        <dc:title>Ordinateur / Computer</dc:title>
        <dc:date>2010-03-22T00:48:00</dc:date>
        <dc:description />
        <dc:source>https://openclipart.org/detail/32935/ordinateur-/-computer-by-lmproulx-32935</dc:source>
        <dc:creator>
          <cc:Agent>
            <dc:title>lmproulx</dc:title>
          </cc:Agent>
        </dc:creator>
        <dc:subject>
          <rdf:Bag>
            <rdf:li>computer</rdf:li>
            <rdf:li>desktop</rdf:li>
          </rdf:Bag>
        </dc:subject>
      </cc:Work>
      <cc:License
         rdf:about="http://creativecommons.org/publicdomain/zero/1.0/">
        <cc:permits
           rdf:resource="http://creativecommons.org/ns#Reproduction" />
        <cc:permits
           rdf:resource="http://creativecommons.org/ns#Distribution" />
        <cc:permits
           rdf:resource="http://creativecommons.org/ns#DerivativeWorks" />
      </cc:License>
    </rdf:RDF>
  </metadata>
</svg>
