<?xml version="1.0" encoding="UTF-8" standalone="no"?>
<svg
   xmlns:dc="http://purl.org/dc/elements/1.1/"
   xmlns:cc="http://creativecommons.org/ns#"
   xmlns:rdf="http://www.w3.org/1999/02/22-rdf-syntax-ns#"
   xmlns:svg="http://www.w3.org/2000/svg"
   xmlns="http://www.w3.org/2000/svg"
   xmlns:xlink="http://www.w3.org/1999/xlink"
   xmlns:sodipodi="http://sodipodi.sourceforge.net/DTD/sodipodi-0.dtd"
   xmlns:inkscape="http://www.inkscape.org/namespaces/inkscape"
   id="svg1"
   sodipodi:docname="pocitac-2.svg"
   viewBox="0 0 50 45.000001"
   sodipodi:version="0.32"
   version="1.0"
   inkscape:output_extension="org.inkscape.output.svg.inkscape"
   y="0"
   x="0"
   inkscape:version="1.0.1 (3bc2e813f5, 2020-09-07)"
   width="50"
   height="45">
  <sodipodi:namedview
     id="base"
     bordercolor="#666666"
     inkscape:pageshadow="2"
     guidetolerance="10.0"
     pagecolor="#ffffff"
     gridtolerance="10.0"
     objecttolerance="10.0"
     borderopacity="1.0"
     inkscape:window-height="1001"
     showgrid="false"
     inkscape:pageopacity="0.0"
     inkscape:window-width="1920"
     inkscape:document-rotation="0"
     inkscape:zoom="9.6645002"
     inkscape:cx="26.738518"
     inkscape:cy="27.310646"
     inkscape:window-x="-9"
     inkscape:window-y="-9"
     inkscape:window-maximized="1"
     inkscape:current-layer="svg1" />
  <defs
     id="defs3">
    <linearGradient
       id="linearGradient1959">
      <stop
         id="stop1960"
         style="stop-color:#7c7c7c"
         offset="0" />
      <stop
         id="stop1961"
         style="stop-color:#d8d8d8"
         offset="1" />
    </linearGradient>
    <linearGradient
       id="linearGradient893">
      <stop
         id="stop895"
         style="stop-color:#c3c3c3"
         offset="0" />
      <stop
         id="stop896"
         style="stop-color:#f2f2f2"
         offset="1" />
    </linearGradient>
    <linearGradient
       id="linearGradient4284"
       y2="287.98999"
       xlink:href="#linearGradient893"
       gradientUnits="userSpaceOnUse"
       y1="129.28"
       gradientTransform="matrix(0.65259064,0,0,2.6736337,-431.57001,-272.55314)"
       x2="821.84003"
       x1="670.60999" />
    <linearGradient
       id="linearGradient4283"
       y2="801.06"
       xlink:href="#linearGradient1959"
       gradientUnits="userSpaceOnUse"
       y1="783.01001"
       gradientTransform="matrix(1.8721116,0,0,0.93196099,-431.57001,-272.55314)"
       x2="277.10001"
       x1="259.91" />
    <linearGradient
       id="linearGradient2740"
       y2="377.81"
       gradientUnits="userSpaceOnUse"
       y1="400.72"
       x2="527.01001"
       x1="549.95001"
       gradientTransform="matrix(1.1832622,0,0,1.1596181,-581.11967,-312.2977)">
      <stop
         id="stop1946"
         style="stop-color:#9fa4af"
         offset="0" />
      <stop
         id="stop1947"
         style="stop-color:#f2f2f2"
         offset="1" />
    </linearGradient>
    <linearGradient
       id="linearGradient1506"
       y2="377.81"
       gradientUnits="userSpaceOnUse"
       y1="400.72"
       x2="527.01001"
       x1="549.96002"
       gradientTransform="matrix(0.82836281,0,0,0.81025327,-389.97487,-210.72445)">
      <stop
         id="stop1949"
         style="stop-color:#30b74b"
         offset="0" />
      <stop
         id="stop1950"
         style="stop-color:#f2f2f2"
         offset="1" />
    </linearGradient>
    <linearGradient
       id="linearGradient1404"
       y2="828.39001"
       xlink:href="#linearGradient1959"
       gradientUnits="userSpaceOnUse"
       y1="810.34003"
       gradientTransform="matrix(1.8721116,0,0,0.93196099,-431.57001,-272.55314)"
       x2="277.10001"
       x1="259.91" />
    <linearGradient
       id="linearGradient1167"
       y2="965.65002"
       xlink:href="#linearGradient893"
       gradientUnits="userSpaceOnUse"
       y1="811.94"
       gradientTransform="scale(1.8084,0.55296)"
       x2="387.84"
       x1="227.75" />
    <linearGradient
       id="linearGradient1141"
       y2="1430"
       xlink:href="#linearGradient893"
       gradientUnits="userSpaceOnUse"
       y1="1231.3"
       gradientTransform="matrix(3.0831127,0,0,0.56591319,-301.15262,-155.67)"
       x2="335.5"
       x1="134.64" />
    <linearGradient
       id="linearGradient1463"
       y2="474.97"
       gradientUnits="userSpaceOnUse"
       y1="106.11"
       gradientTransform="matrix(1.5171,0,0,1.1502,-313.71,-186.09)"
       x2="677.40002"
       x1="304.53">
      <stop
         id="stop1134"
         style="stop-color:#8bb7df"
         offset="0" />
      <stop
         id="stop1136"
         style="stop-color:#2a6092"
         offset=".76209" />
      <stop
         id="stop1135"
         style="stop-color:#375e82"
         offset="1" />
    </linearGradient>
    <linearGradient
       id="linearGradient1466"
       y2="791.98999"
       xlink:href="#linearGradient893"
       gradientUnits="userSpaceOnUse"
       y1="-572.33002"
       gradientTransform="matrix(1.1609,0,0,0.86138,-140.24,-44.428)"
       x2="814.03003"
       x1="199.17" />
    <linearGradient
       id="linearGradient1469"
       y2="475.92001"
       xlink:href="#linearGradient893"
       gradientUnits="userSpaceOnUse"
       y1="475.92001"
       gradientTransform="matrix(1.3573,0,0,1.2856,-313.71,-186.09)"
       x2="601.78003"
       x1="495.78" />
  </defs>
  <path
     id="rect2111"
     style="fill:none;fill-rule:evenodd;stroke:#000000;stroke-width:0.99999;stroke-miterlimit:4;stroke-dasharray:none"
     d="M 9.2478167,42.371251 H 46.873007 c 0.02603,0 0.04699,0.02141 0.04699,0.048 v 0.608797 c 0,0.02659 -0.02096,0.048 -0.04699,0.048 H 9.2478167 c -0.02603,0 -0.04699,-0.02141 -0.04699,-0.048 v -0.608793 c 0,-0.0266 0.02096,-0.048 0.04699,-0.048 z m 0.748761,-1.485316 H 45.999017 c 0.02603,0 0.04699,0.02141 0.04699,0.048 v 0.608797 c 0,0.0266 -0.02096,0.048 -0.04699,0.048 H 9.9965777 c -0.02603,0 -0.04699,-0.02141 -0.04699,-0.048 v -0.608797 c 0,-0.0266 0.02096,-0.048 0.04699,-0.048 z m 0.8739933,-1.48532 h 34.254453 c 0.02603,0 0.04699,0.02141 0.04699,0.048 v 0.608798 c 0,0.0266 -0.02096,0.048 -0.04699,0.048 H 10.870571 c -0.02603,0 -0.04699,-0.02141 -0.04699,-0.048 v -0.608798 c 0,-0.02659 0.02096,-0.048 0.04699,-0.048 z m 0.831957,-1.485321 h 32.589665 c 0.02603,0 0.04699,0.02141 0.04699,0.048 v 0.608801 c 0,0.02659 -0.02096,0.048 -0.04699,0.048 H 11.702528 c -0.02603,0 -0.04699,-0.02141 -0.04699,-0.048 v -0.608798 c 0,-0.0266 0.02096,-0.048 0.04699,-0.048 z m 0.56602,-1.078069 c -0.683955,0.01611 -1.240029,0.374011 -1.543912,0.671971 l -3.8024823,5.509921 c -0.194449,0.264315 -0.228704,0.465303 -0.121333,0.617727 -0.309989,0.649016 0.593015,0.834556 2.346494,0.863149 L 46.5599,44.448133 c 1.478297,0 3.361228,-0.118984 2.856426,-0.855873 0.135144,-0.142077 0.116013,-0.328679 -0.131821,-0.57314 l -3.665869,-5.344412 c -0.416854,-0.293486 -1.240089,-0.837483 -2.421468,-0.837483 z m 1.417233,-34.08147 h 28.870967 c 0.156174,0 0.281902,0.1284603 0.281902,0.2880285 V 25.076469 c 0,0.159568 -0.125728,0.288029 -0.281902,0.288029 H 13.685781 c -0.156175,0 -0.281904,-0.128461 -0.281904,-0.288029 V 3.0437835 c 0,-0.1595682 0.125729,-0.2880285 0.281904,-0.2880285 z M 10.864758,0.49999499 h 34.745059 c 0.156174,0 0.281904,0.1284607 0.281904,0.2880284 V 27.33216 c 0,0.159567 -0.12573,0.288028 -0.281904,0.288028 H 10.864758 c -0.156175,0 -0.281904,-0.128461 -0.281904,-0.288028 V 0.78802339 c 0,-0.1595677 0.125729,-0.2880284 0.281904,-0.2880284 z M 24.976334,27.620151 v 3.310638 c 0,0.265482 0.611511,0.479204 1.371043,0.479204 h 3.548809 c 0.759534,0 1.370915,-0.213722 1.370915,-0.479204 v -3.310638 z m 0,0.719866 c -4.338236,0.564252 -7.661762,2.266588 -8.40081,4.371977 v 0.444276 0.979974 0.444408 c 0,0.08969 0.07071,0.16194 0.158495,0.16194 h 1.423228 c 2.394585,-0.740795 5.947487,-1.21177 9.918954,-1.21177 3.970655,0 7.523463,0.470975 9.918048,1.21177 h 1.515942 c 0.08778,0 0.158496,-0.07225 0.158497,-0.16194 V 34.136244 33.15627 32.711994 c -0.739686,-2.105324 -4.063733,-3.80754 -8.401587,-4.371845 v 2.59064 c 0,0.265482 -0.611381,0.479204 -1.370915,0.479204 h -3.548809 c -0.759532,0 -1.371043,-0.213722 -1.371043,-0.479204 z M 4.3351197,7.1207371 c 0,-0.31779 -0.258122,-0.575755 -0.576107,-0.575755 -0.3185334,0 -0.576107,0.257965 -0.576107,0.575755 0,0.31834 0.2575736,0.575757 0.576107,0.575757 0.317985,0 0.576107,-0.257417 0.576107,-0.575757 z m 0.246619,2.333996 c 0,-0.454817 -0.36871,-0.82401 -0.822931,-0.82401 -0.4550041,0 -0.8229309,0.369193 -0.8229309,0.82401 0,0.455602 0.3679268,0.8240099 0.8229309,0.8240099 0.454221,0 0.822931,-0.3684079 0.822931,-0.8240099 z M 3.9757247,31.10103 h 1.581349 c 0.156169,0 0.281893,0.128456 0.281893,0.288018 v 0.368932 c 0,0.159563 -0.125724,0.288019 -0.281893,0.288019 h -1.581349 c -0.156169,0 -0.281893,-0.128456 -0.281893,-0.288019 v -0.368932 c 0,-0.159562 0.125724,-0.288018 0.281893,-0.288018 z m 0,1.725117 h 1.581349 c 0.156169,0 0.281893,0.128456 0.281893,0.288019 v 0.368931 c 0,0.159562 -0.125724,0.288018 -0.281893,0.288018 h -1.581349 c -0.156169,0 -0.281893,-0.128456 -0.281893,-0.288018 v -0.368931 c 0,-0.159563 0.125724,-0.288019 0.281893,-0.288019 z M 2.7866384,16.895993 c 0,-0.161822 -0.1283651,-0.293038 -0.2868073,-0.293038 -0.1583804,0 -0.2867824,0.131216 -0.2867824,0.293038 0,0.161885 0.128402,0.29304 0.2867824,0.29304 0.1584422,0 0.2868073,-0.131155 0.2868073,-0.29304 z m 0,1.01467 c 0,-0.161821 -0.1283651,-0.293038 -0.2868073,-0.293038 -0.1583804,0 -0.2867824,0.131217 -0.2867824,0.293038 0,0.161885 0.128402,0.29304 0.2867824,0.29304 0.1584422,0 0.2868073,-0.131155 0.2868073,-0.29304 z M 1.9152732,17.403329 c 0,-0.161822 -0.1283651,-0.293039 -0.286807,-0.293039 -0.1583805,0 -0.2867825,0.131217 -0.2867825,0.293039 0,0.161884 0.128402,0.293039 0.2867825,0.293039 0.1584419,0 0.286807,-0.131155 0.286807,-0.293039 z m 0,1.013776 c 0,-0.161822 -0.1283651,-0.293039 -0.286807,-0.293039 -0.1583805,0 -0.2867825,0.131217 -0.2867825,0.293039 0,0.161885 0.128402,0.293039 0.2867825,0.293039 0.1584419,0 0.286807,-0.131154 0.286807,-0.293039 z m 0.8713652,0.50644 c 0,-0.161822 -0.1283651,-0.293039 -0.2868073,-0.293039 -0.1583804,0 -0.2867824,0.131217 -0.2867824,0.293039 0,0.161884 0.128402,0.293039 0.2867824,0.293039 0.1584422,0 0.2868073,-0.131155 0.2868073,-0.293039 z m 0,1.013776 c 0,-0.161822 -0.1283651,-0.293039 -0.2868073,-0.293039 -0.1583804,0 -0.2867824,0.131217 -0.2867824,0.293039 0,0.161885 0.128402,0.293039 0.2867824,0.293039 0.1584422,0 0.2868073,-0.131154 0.2868073,-0.293039 z M 1.9152732,19.429985 c 0,-0.161821 -0.1283651,-0.293038 -0.286807,-0.293038 -0.1583805,0 -0.2867825,0.131217 -0.2867825,0.293038 0,0.161884 0.128402,0.293039 0.2867825,0.293039 0.1584419,0 0.286807,-0.131155 0.286807,-0.293039 z m 0,1.014671 c 0,-0.161821 -0.1283651,-0.293038 -0.286807,-0.293038 -0.1583805,0 -0.2867825,0.131217 -0.2867825,0.293038 0,0.161885 0.128402,0.293039 0.2867825,0.293039 0.1584419,0 0.286807,-0.131154 0.286807,-0.293039 z m 0.8713652,0.50644 c 0,-0.161821 -0.1283651,-0.293038 -0.2868073,-0.293038 -0.1583804,0 -0.2867824,0.131217 -0.2867824,0.293038 0,0.161885 0.128402,0.29304 0.2867824,0.29304 0.1584422,0 0.2868073,-0.131155 0.2868073,-0.29304 z m 0,1.014671 c 0,-0.161822 -0.1283651,-0.293038 -0.2868073,-0.293038 -0.1583804,0 -0.2867824,0.131216 -0.2867824,0.293038 0,0.161885 0.128402,0.29304 0.2867824,0.29304 0.1584422,0 0.2868073,-0.131155 0.2868073,-0.29304 z M 1.9152732,21.458432 c 0,-0.161821 -0.1283651,-0.293038 -0.286807,-0.293038 -0.1583805,0 -0.2867825,0.131217 -0.2867825,0.293038 0,0.161884 0.128402,0.293039 0.2867825,0.293039 0.1584419,0 0.286807,-0.131155 0.286807,-0.293039 z m 0,1.013776 c 0,-0.161822 -0.1283651,-0.293039 -0.286807,-0.293039 -0.1583805,0 -0.2867825,0.131217 -0.2867825,0.293039 0,0.161885 0.128402,0.293039 0.2867825,0.293039 0.1584419,0 0.286807,-0.131154 0.286807,-0.293039 z m 0.8713652,0.505546 c 0,-0.161822 -0.1283651,-0.293039 -0.2868073,-0.293039 -0.1583804,0 -0.2867824,0.131217 -0.2867824,0.293039 0,0.161884 0.128402,0.293039 0.2867824,0.293039 0.1584422,0 0.2868073,-0.131155 0.2868073,-0.293039 z m 0,1.01467 c 0,-0.161822 -0.1283651,-0.293038 -0.2868073,-0.293038 -0.1583804,0 -0.2867824,0.131216 -0.2867824,0.293038 0,0.161885 0.128402,0.293039 0.2867824,0.293039 0.1584422,0 0.2868073,-0.131154 0.2868073,-0.293039 z M 1.9152732,23.485089 c 0,-0.161822 -0.1283651,-0.293038 -0.286807,-0.293038 -0.1583805,0 -0.2867825,0.131216 -0.2867825,0.293038 0,0.161884 0.128402,0.293039 0.2867825,0.293039 0.1584419,0 0.286807,-0.131155 0.286807,-0.293039 z m 0,1.014671 c 0,-0.161822 -0.1283651,-0.293038 -0.286807,-0.293038 -0.1583805,0 -0.2867825,0.131216 -0.2867825,0.293038 0,0.161884 0.128402,0.293039 0.2867825,0.293039 0.1584419,0 0.286807,-0.131155 0.286807,-0.293039 z m 0.8713652,0.50644 c 0,-0.161822 -0.1283651,-0.293038 -0.2868073,-0.293038 -0.1583804,0 -0.2867824,0.131216 -0.2867824,0.293038 0,0.161885 0.128402,0.29304 0.2867824,0.29304 0.1584422,0 0.2868073,-0.131155 0.2868073,-0.29304 z m 0,1.013776 c 0,-0.161822 -0.1283651,-0.293038 -0.2868073,-0.293038 -0.1583804,0 -0.2867824,0.131216 -0.2867824,0.293038 0,0.161885 0.128402,0.293039 0.2867824,0.293039 0.1584422,0 0.2868073,-0.131154 0.2868073,-0.293039 z M 1.9152732,25.512641 c 0,-0.161821 -0.1283651,-0.293039 -0.286807,-0.293039 -0.1583805,0 -0.2867825,0.131218 -0.2867825,0.293039 0,0.161884 0.128402,0.293039 0.2867825,0.293039 0.1584419,0 0.286807,-0.131155 0.286807,-0.293039 z m 0,1.01467 c 0,-0.161821 -0.1283651,-0.293038 -0.286807,-0.293038 -0.1583805,0 -0.2867825,0.131217 -0.2867825,0.293038 0,0.161885 0.128402,0.293039 0.2867825,0.293039 0.1584419,0 0.286807,-0.131154 0.286807,-0.293039 z m 0.8713652,0.505546 c 0,-0.161821 -0.1283651,-0.293038 -0.2868073,-0.293038 -0.1583804,0 -0.2867824,0.131217 -0.2867824,0.293038 0,0.161885 0.128402,0.293039 0.2867824,0.293039 0.1584422,0 0.2868073,-0.131154 0.2868073,-0.293039 z m 0,1.013776 c 0,-0.161822 -0.1283651,-0.293039 -0.2868073,-0.293039 -0.1583804,0 -0.2867824,0.131217 -0.2867824,0.293039 0,0.161885 0.128402,0.293039 0.2867824,0.293039 0.1584422,0 0.2868073,-0.131154 0.2868073,-0.293039 z M 1.9152732,27.539298 c 0,-0.161822 -0.1283651,-0.293039 -0.286807,-0.293039 -0.1583805,0 -0.2867825,0.131217 -0.2867825,0.293039 0,0.161884 0.128402,0.293039 0.2867825,0.293039 0.1584419,0 0.286807,-0.131155 0.286807,-0.293039 z m 0,1.014671 c 0,-0.161822 -0.1283651,-0.293039 -0.286807,-0.293039 -0.1583805,0 -0.2867825,0.131217 -0.2867825,0.293039 0,0.161884 0.128402,0.293039 0.2867825,0.293039 0.1584419,0 0.286807,-0.131155 0.286807,-0.293039 z m 0.8713652,0.50644 c 0,-0.161822 -0.1283651,-0.293038 -0.2868073,-0.293038 -0.1583804,0 -0.2867824,0.131216 -0.2867824,0.293038 0,0.161885 0.128402,0.293039 0.2867824,0.293039 0.1584422,0 0.2868073,-0.131154 0.2868073,-0.293039 z m 0,1.014671 c 0,-0.161822 -0.1283651,-0.293038 -0.2868073,-0.293038 -0.1583804,0 -0.2867824,0.131216 -0.2867824,0.293038 0,0.161885 0.128402,0.293039 0.2867824,0.293039 0.1584422,0 0.2868073,-0.131154 0.2868073,-0.293039 z M 1.9152732,29.567744 c 0,-0.161821 -0.1283651,-0.293039 -0.286807,-0.293039 -0.1583805,0 -0.2867825,0.131218 -0.2867825,0.293039 0,0.161884 0.128402,0.293039 0.2867825,0.293039 0.1584419,0 0.286807,-0.131155 0.286807,-0.293039 z m 0,1.014671 c 0,-0.161821 -0.1283651,-0.293038 -0.286807,-0.293038 -0.1583805,0 -0.2867825,0.131217 -0.2867825,0.293038 0,0.161884 0.128402,0.293039 0.2867825,0.293039 0.1584419,0 0.286807,-0.131155 0.286807,-0.293039 z m 0.8713652,2.533992 c 0,-0.161821 -0.1283651,-0.293038 -0.2868073,-0.293038 -0.1583804,0 -0.2867824,0.131217 -0.2867824,0.293038 0,0.161885 0.128402,0.293039 0.2867824,0.293039 0.1584422,0 0.2868073,-0.131154 0.2868073,-0.293039 z m 0,-2.028447 c 0,-0.161821 -0.1283651,-0.293038 -0.2868073,-0.293038 -0.1583804,0 -0.2867824,0.131217 -0.2867824,0.293038 0,0.161885 0.128402,0.293039 0.2867824,0.293039 0.1584422,0 0.2868073,-0.131154 0.2868073,-0.293039 z m 0,1.013776 c 0,-0.161821 -0.1283651,-0.293038 -0.2868073,-0.293038 -0.1583804,0 -0.2867824,0.131217 -0.2867824,0.293038 0,0.161885 0.128402,0.293039 0.2867824,0.293039 0.1584422,0 0.2868073,-0.131154 0.2868073,-0.293039 z m -0.8713652,1.521112 c 0,-0.161822 -0.1283651,-0.293039 -0.286807,-0.293039 -0.1583805,0 -0.2867825,0.131217 -0.2867825,0.293039 0,0.161884 0.128402,0.293039 0.2867825,0.293039 0.1584419,0 0.286807,-0.131155 0.286807,-0.293039 z m 0,-2.028446 c 0,-0.161822 -0.1283651,-0.293039 -0.286807,-0.293039 -0.1583805,0 -0.2867825,0.131217 -0.2867825,0.293039 0,0.161884 0.128402,0.293039 0.2867825,0.293039 0.1584419,0 0.286807,-0.131155 0.286807,-0.293039 z m 0,1.01467 c 0,-0.161822 -0.1283651,-0.293039 -0.286807,-0.293039 -0.1583805,0 -0.2867825,0.131217 -0.2867825,0.293039 0,0.161884 0.128402,0.293039 0.2867825,0.293039 0.1584419,0 0.286807,-0.131155 0.286807,-0.293039 z M 0.78188799,4.4762121 H 6.7366987 c 0.156169,0 0.281894,0.128456 0.281894,0.288018 V 34.418937 c 0,0.159562 -0.125725,0.288018 -0.281894,0.288018 H 0.78188799 c -0.1561687,0 -0.281893,-0.128456 -0.281893,-0.288018 V 4.7642301 c 0,-0.159562 0.1257243,-0.288018 0.281893,-0.288018 z" />
  <metadata
     id="metadata86">
    <rdf:RDF>
      <cc:Work>
        <dc:format>image/svg+xml</dc:format>
        <dc:type
           rdf:resource="http://purl.org/dc/dcmitype/StillImage" />
        <cc:license
           rdf:resource="http://creativecommons.org/publicdomain/zero/1.0/" />
        <dc:publisher>
          <cc:Agent
             rdf:about="http://openclipart.org/">
            <dc:title>Openclipart</dc:title>
          </cc:Agent>
        </dc:publisher>
        <dc:title>thin client</dc:title>
        <dc:date>2008-02-09T04:35:07</dc:date>
        <dc:description />
        <dc:source>https://openclipart.org/detail/13248/thin-client-by-anonymous</dc:source>
        <dc:creator>
          <cc:Agent>
            <dc:title>Anonymous</dc:title>
          </cc:Agent>
        </dc:creator>
        <dc:subject>
          <rdf:Bag>
            <rdf:li>client</rdf:li>
            <rdf:li>computer</rdf:li>
            <rdf:li>desktop</rdf:li>
          </rdf:Bag>
        </dc:subject>
      </cc:Work>
      <cc:License
         rdf:about="http://creativecommons.org/publicdomain/zero/1.0/">
        <cc:permits
           rdf:resource="http://creativecommons.org/ns#Reproduction" />
        <cc:permits
           rdf:resource="http://creativecommons.org/ns#Distribution" />
        <cc:permits
           rdf:resource="http://creativecommons.org/ns#DerivativeWorks" />
      </cc:License>
    </rdf:RDF>
  </metadata>
</svg>
