<?xml version="1.0" encoding="UTF-8" standalone="no"?>
<svg
   xmlns:dc="http://purl.org/dc/elements/1.1/"
   xmlns:cc="http://creativecommons.org/ns#"
   xmlns:rdf="http://www.w3.org/1999/02/22-rdf-syntax-ns#"
   xmlns:svg="http://www.w3.org/2000/svg"
   xmlns="http://www.w3.org/2000/svg"
   xmlns:sodipodi="http://sodipodi.sourceforge.net/DTD/sodipodi-0.dtd"
   xmlns:inkscape="http://www.inkscape.org/namespaces/inkscape"
   id="svg3094"
   sodipodi:docname="pocitac-1.svg"
   viewBox="0 0 50.000001 45"
   version="1.1"
   inkscape:version="1.0.1 (3bc2e813f5, 2020-09-07)"
   width="50"
   height="45">
  <defs
     id="defs14" />
  <sodipodi:namedview
     id="base"
     bordercolor="#666666"
     inkscape:pageshadow="2"
     inkscape:window-y="-9"
     fit-margin-left="0"
     pagecolor="#ffffff"
     fit-margin-top="0"
     inkscape:window-maximized="1"
     inkscape:zoom="7.649398"
     inkscape:window-x="-9"
     inkscape:window-height="1001"
     showgrid="false"
     borderopacity="1.0"
     inkscape:current-layer="layer1"
     inkscape:cx="38.661874"
     inkscape:cy="10.82227"
     fit-margin-right="0"
     fit-margin-bottom="0"
     inkscape:window-width="1920"
     inkscape:pageopacity="0.0"
     inkscape:document-units="px"
     inkscape:document-rotation="0" />
  <g
     id="layer1"
     inkscape:label="Layer 1"
     inkscape:groupmode="layer"
     transform="translate(-337.89,-501.94)">
    <path
       id="path5067-3-3"
       style="fill:#ffff00;stroke:#000000;stroke-width:1;stroke-miterlimit:4;stroke-dasharray:none"
       d="m 375.0306,529.9405 h 2.69991 m 3.74058,7.49114 h 2.69991 m -42.21671,0.0913 h 10.3213 m -12.39318,-4.37306 h 46.0152 c 0.82679,0 1.4924,0.66561 1.4924,1.4924 v 10.30533 c 0,0.82679 -0.66561,1.4924 -1.4924,1.4924 h -46.0152 c -0.82678,0 -1.4924,-0.66561 -1.4924,-1.4924 v -10.30533 c 0,-0.82679 0.66562,-1.4924 1.4924,-1.4924 z m 10.53461,-26.11627 h 24.53865 c 0.82679,0 1.4924,0.66561 1.4924,1.4924 v 16.78878 c 0,0.82679 -0.66561,1.4924 -1.4924,1.4924 h -24.53865 c -0.82679,0 -1.4924,-0.66561 -1.4924,-1.4924 v -16.78878 c 0,-0.82679 0.66561,-1.4924 1.4924,-1.4924 z m -4.4863,-4.59357 h 33.85053 c 0.82679,0 1.4924,6.69 1.4924,15 v 0.72586 c 0,8.31 -0.66561,15 -1.4924,15 h -33.85053 c -0.82679,0 -1.4924,-6.69 -1.4924,-15 V 517.44 c 0,-8.31 0.66561,-15 1.4924,-15 z" />
  </g>
  <metadata
     id="metadata11">
    <rdf:RDF>
      <cc:Work>
        <dc:format>image/svg+xml</dc:format>
        <dc:type
           rdf:resource="http://purl.org/dc/dcmitype/StillImage" />
        <cc:license
           rdf:resource="http://creativecommons.org/publicdomain/zero/1.0/" />
        <dc:publisher>
          <cc:Agent
             rdf:about="http://openclipart.org/">
            <dc:title>Openclipart</dc:title>
          </cc:Agent>
        </dc:publisher>
        <dc:title></dc:title>
      </cc:Work>
      <cc:License
         rdf:about="http://creativecommons.org/publicdomain/zero/1.0/">
        <cc:permits
           rdf:resource="http://creativecommons.org/ns#Reproduction" />
        <cc:permits
           rdf:resource="http://creativecommons.org/ns#Distribution" />
        <cc:permits
           rdf:resource="http://creativecommons.org/ns#DerivativeWorks" />
      </cc:License>
    </rdf:RDF>
  </metadata>
</svg>
