<?xml version="1.0" encoding="UTF-8" standalone="no"?>
<svg
   xmlns:dc="http://purl.org/dc/elements/1.1/"
   xmlns:cc="http://creativecommons.org/ns#"
   xmlns:rdf="http://www.w3.org/1999/02/22-rdf-syntax-ns#"
   xmlns:svg="http://www.w3.org/2000/svg"
   xmlns="http://www.w3.org/2000/svg"
   xmlns:sodipodi="http://sodipodi.sourceforge.net/DTD/sodipodi-0.dtd"
   xmlns:inkscape="http://www.inkscape.org/namespaces/inkscape"
   width="45"
   height="35"
   viewBox="0 0 45.000001 35.000001"
   id="svg2"
   version="1.1"
   inkscape:version="1.0.1 (3bc2e813f5, 2020-09-07)"
   sodipodi:docname="pracovny-stol-s-odkladacom.svg">
  <defs
     id="defs4">
    <clipPath
       id="clipEmfPath1"
       clipPathUnits="userSpaceOnUse">
      <path
         inkscape:connector-curvature="0"
         id="path4141"
         d="M 6.25143,7.50172 H 363.833 V 248.807 H 6.25143 Z" />
    </clipPath>
    <pattern
       y="0"
       x="0"
       height="6"
       width="6"
       patternUnits="userSpaceOnUse"
       id="EMFhbasepattern" />
    <clipPath
       id="clipEmfPath1-6"
       clipPathUnits="userSpaceOnUse">
      <path
         inkscape:connector-curvature="0"
         id="path4222"
         d="M 6.25143,7.50172 H 355.081 V 253.808 H 6.25143 Z" />
    </clipPath>
    <pattern
       y="0"
       x="0"
       height="6"
       width="6"
       patternUnits="userSpaceOnUse"
       id="EMFhbasepattern-8" />
  </defs>
  <sodipodi:namedview
     id="base"
     pagecolor="#ffffff"
     bordercolor="#666666"
     borderopacity="1.0"
     inkscape:pageopacity="0.0"
     inkscape:pageshadow="2"
     inkscape:zoom="10.817882"
     inkscape:cx="26.280489"
     inkscape:cy="24.578396"
     inkscape:document-units="px"
     inkscape:current-layer="layer1"
     showgrid="false"
     fit-margin-top="0"
     fit-margin-left="0"
     fit-margin-right="0"
     fit-margin-bottom="0"
     inkscape:window-width="1920"
     inkscape:window-height="1001"
     inkscape:window-x="-9"
     inkscape:window-y="-9"
     inkscape:window-maximized="1"
     inkscape:document-rotation="0"
     units="px" />
  <metadata
     id="metadata7">
    <rdf:RDF>
      <cc:Work
         rdf:about="">
        <dc:format>image/svg+xml</dc:format>
        <dc:type
           rdf:resource="http://purl.org/dc/dcmitype/StillImage" />
        <dc:title></dc:title>
      </cc:Work>
    </rdf:RDF>
  </metadata>
  <g
     inkscape:label="Layer 1"
     inkscape:groupmode="layer"
     id="layer1"
     transform="translate(-225.49521,-420.42417)">
    <path
       id="path4271"
       style="fill:#ffff00;stroke:#000000;stroke-width:1;stroke-linecap:butt;stroke-linejoin:round;stroke-miterlimit:10;stroke-dasharray:none;stroke-opacity:1"
       d="m 231.07448,427.08253 c -0.17234,0 -0.30415,0.14582 -0.30415,0.33651 0,0.17948 0.13181,0.32532 0.30415,0.32532 h 33.71984 c 0.17242,0 0.30411,-0.14584 0.30411,-0.32532 0,-0.19069 -0.13169,-0.33651 -0.30411,-0.33651 z m 38.79916,1.6153 -2.52448,-7.77366 H 228.6413 l -2.53457,7.77366 z m -43.24985,-0.12338 c -0.34471,0 -0.62858,0.31408 -0.62858,0.69547 0,0.39261 0.28387,0.7067 0.62858,0.7067 h 42.73271 c 0.35484,0 0.63871,-0.31409 0.63871,-0.7067 0,-0.38139 -0.28387,-0.69547 -0.63871,-0.69547 z m 0.9555,1.40224 c -0.008,0.0475 -0.0128,0.0962 -0.0128,0.14581 v 3.32021 c 0,0.4599 0.33463,0.83018 0.75029,0.83018 h 39.52914 c 0.41569,0 0.75029,-0.37028 0.75029,-0.83018 v -3.32021 c 0,-0.0496 -0.005,-0.0983 -0.0125,-0.14581 z m 38.89801,24.94748 -0.48665,-1.45832 h -0.98343 l -0.48666,1.45832 z m -34.95674,0 -0.48664,-1.45832 h -0.9834 l -0.48664,1.45832 z m 32.04707,-6.10232 -0.39545,-1.17783 h -0.78065 l -0.39531,1.17783 z m -29.37056,0 -0.3954,-1.17783 h -0.78065 l -0.39538,1.17783 z m -4.52159,-14.54896 v 18.82279 h 1.84501 v -18.82279 z m 2.99083,0 v 12.97842 h 1.55114 v -12.97842 z m 29.32981,0 v 12.97842 h 1.55115 v -12.97842 z m 2.52435,0 v 18.82279 h 1.84528 v -18.82279 z" />
  </g>
</svg>
