<?xml version="1.0" encoding="UTF-8" standalone="no"?>
<svg
   xmlns:dc="http://purl.org/dc/elements/1.1/"
   xmlns:cc="http://creativecommons.org/ns#"
   xmlns:rdf="http://www.w3.org/1999/02/22-rdf-syntax-ns#"
   xmlns:svg="http://www.w3.org/2000/svg"
   xmlns="http://www.w3.org/2000/svg"
   xmlns:sodipodi="http://sodipodi.sourceforge.net/DTD/sodipodi-0.dtd"
   xmlns:inkscape="http://www.inkscape.org/namespaces/inkscape"
   width="100"
   height="100"
   viewBox="0 0 100 100"
   version="1.1"
   id="svg1157"
   inkscape:version="1.0.1 (3bc2e813f5, 2020-09-07)"
   sodipodi:docname="predlohy-dopravnikov.svg">
  <defs
     id="defs1151" />
  <sodipodi:namedview
     id="base"
     pagecolor="#ffffff"
     bordercolor="#666666"
     borderopacity="1.0"
     inkscape:pageopacity="0.0"
     inkscape:pageshadow="2"
     inkscape:zoom="2.8"
     inkscape:cx="88.524512"
     inkscape:cy="50.862424"
     inkscape:document-units="px"
     inkscape:current-layer="layer2"
     inkscape:document-rotation="0"
     showgrid="false"
     units="px"
     inkscape:window-width="1920"
     inkscape:window-height="1001"
     inkscape:window-x="-9"
     inkscape:window-y="-9"
     inkscape:window-maximized="1" />
  <metadata
     id="metadata1154">
    <rdf:RDF>
      <cc:Work
         rdf:about="">
        <dc:format>image/svg+xml</dc:format>
        <dc:type
           rdf:resource="http://purl.org/dc/dcmitype/StillImage" />
        <dc:title></dc:title>
      </cc:Work>
    </rdf:RDF>
  </metadata>
  <g
     inkscape:label="Vrstva 1"
     inkscape:groupmode="layer"
     id="layer1"
     style="display:none"
     sodipodi:insensitive="true">
    <g
       id="g1413">
      <path
         style="fill:#ff0000;fill-rule:evenodd;stroke:none;stroke-width:0.999997;stroke-miterlimit:4;stroke-dasharray:none;stop-color:#000000"
         d="m 100,52 v 6 H 0 v -6 z"
         id="rect1174" />
      <path
         style="fill:#0000ff;fill-rule:evenodd;stroke:none;stroke-width:1;stroke-miterlimit:4;stroke-dasharray:none;stop-color:#000000"
         d="m 14,12.000001 h 8 v 39.999998 h -8 z"
         id="path1187" />
      <path
         style="fill:#0000ff;fill-rule:evenodd;stroke:none;stroke-width:1;stroke-miterlimit:4;stroke-dasharray:none;stop-color:#000000"
         d="m 43.999999,12.000001 h 8 v 39.999998 h -8 z"
         id="path1185" />
      <path
         style="fill:#0000ff;fill-rule:evenodd;stroke:none;stroke-width:1;stroke-miterlimit:4;stroke-dasharray:none;stop-color:#000000"
         d="m 74,12.000001 h 8 v 39.999998 h -8 z"
         id="rect1165" />
      <path
         style="fill:#ffff00;fill-rule:evenodd;stroke:none;stroke-width:1;stroke-miterlimit:4;stroke-dasharray:none;stop-color:#000000"
         d="M 0,-100.00001 H 12.000001 V -7.6293945e-6 H 0 Z"
         transform="rotate(90)"
         id="rect1167" />
      <path
         id="circle1225"
         style="fill:#ff00ff;fill-rule:evenodd;stroke:none;stroke-width:1;stroke-miterlimit:4;stroke-dasharray:none;stop-color:#000000"
         d="M 12.033988,-0.25 A 5.7669902,5.75 0 0 1 6.2669978,5.5 5.7669902,5.75 0 0 1 0.50000763,-0.25 5.7669902,5.75 0 0 1 6.2669978,-6 5.7669902,5.75 0 0 1 12.033988,-0.25 Z m 12.495147,0 a 5.7669902,5.75 0 0 1 -5.766991,5.75 5.7669902,5.75 0 0 1 -5.76699,-5.75 5.7669902,5.75 0 0 1 5.76699,-5.75 5.7669902,5.75 0 0 1 5.766991,5.75 z m 12.495145,0 A 5.7669902,5.75 0 0 1 31.25729,5.5 5.7669902,5.75 0 0 1 25.4903,-0.25 5.7669902,5.75 0 0 1 31.25729,-6 a 5.7669902,5.75 0 0 1 5.76699,5.75 z m 12.495144,0 a 5.7669902,5.75 0 0 1 -5.76699,5.75 5.7669902,5.75 0 0 1 -5.76699,-5.75 5.7669902,5.75 0 0 1 5.76699,-5.75 5.7669902,5.75 0 0 1 5.76699,5.75 z m 12.495148,0 a 5.7669902,5.75 0 0 1 -5.76699,5.75 5.7669902,5.75 0 0 1 -5.76699,-5.75 5.7669902,5.75 0 0 1 5.76699,-5.75 5.7669902,5.75 0 0 1 5.76699,5.75 z m 12.495148,0 A 5.7669902,5.75 0 0 1 68.74273,5.5 5.7669902,5.75 0 0 1 62.975739,-0.25 5.7669902,5.75 0 0 1 68.74273,-6 a 5.7669902,5.75 0 0 1 5.76699,5.75 z m 12.49514,0 A 5.7669902,5.75 0 0 1 81.23787,5.5 5.7669902,5.75 0 0 1 75.470879,-0.25 5.7669902,5.75 0 0 1 81.23787,-6 a 5.7669902,5.75 0 0 1 5.76699,5.75 z m 12.495148,0 a 5.7669902,5.75 0 0 1 -5.766991,5.75 5.7669902,5.75 0 0 1 -5.76699,-5.75 5.7669902,5.75 0 0 1 5.76699,-5.75 5.7669902,5.75 0 0 1 5.766991,5.75 z" />
      <rect
         style="fill:#00ff00;fill-rule:evenodd;stroke:none;stroke-width:1;stroke-miterlimit:4;stroke-dasharray:none;stop-color:#000000"
         id="rect1403"
         width="100"
         height="11"
         x="0"
         y="46"
         rx="4"
         ry="4" />
    </g>
    <g
       id="g1559"
       style="display:inline">
      <path
         id="path1543"
         style="fill:#ff00ff;fill-rule:evenodd;stroke:none;stroke-width:1;stroke-miterlimit:4;stroke-dasharray:none;stop-color:#000000"
         d="M 96.433333,46.125 92.124998,50.433334 87.816665,46.125 86.249999,47.691667 90.558332,52 86.249999,56.308333 87.816665,57.875 92.124998,53.566667 96.433332,57.875 97.999999,56.308333 93.691665,52 97.999999,47.691667 Z" />
      <path
         id="path1545"
         style="fill:#ff00ff;fill-rule:evenodd;stroke:none;stroke-width:1;stroke-miterlimit:4;stroke-dasharray:none;stop-color:#000000"
         d="M 84.397621,46.125 80.089286,50.433334 75.780953,46.125 74.214287,47.691667 78.52262,52 74.214287,56.308333 75.780953,57.875 80.089286,53.566667 84.39762,57.875 85.964287,56.308333 81.655953,52 85.964287,47.691667 Z" />
      <path
         id="path1547"
         style="fill:#ff00ff;fill-rule:evenodd;stroke:none;stroke-width:1;stroke-miterlimit:4;stroke-dasharray:none;stop-color:#000000"
         d="M 72.361904,46.125 68.053569,50.433334 63.745236,46.125 62.17857,47.691667 66.486903,52 62.17857,56.308333 63.745236,57.875 68.053569,53.566667 72.361903,57.875 73.92857,56.308333 69.620236,52 73.92857,47.691667 Z" />
      <path
         id="path1549"
         style="fill:#ff00ff;fill-rule:evenodd;stroke:none;stroke-width:1;stroke-miterlimit:4;stroke-dasharray:none;stop-color:#000000"
         d="M 60.326191,46.125 56.017856,50.433334 51.709523,46.125 50.142857,47.691667 54.45119,52 50.142857,56.308333 51.709523,57.875 56.017856,53.566667 60.32619,57.875 61.892857,56.308333 57.584523,52 61.892857,47.691667 Z" />
      <path
         id="path1551"
         style="fill:#ff00ff;fill-rule:evenodd;stroke:none;stroke-width:1;stroke-miterlimit:4;stroke-dasharray:none;stop-color:#000000"
         d="M 48.290477,46.125 43.982142,50.433334 39.673809,46.125 38.107143,47.691667 42.415476,52 38.107143,56.308333 39.673809,57.875 43.982142,53.566667 48.290476,57.875 49.857143,56.308333 45.548809,52 49.857143,47.691667 Z" />
      <path
         id="path1553"
         style="fill:#ff00ff;fill-rule:evenodd;stroke:none;stroke-width:1;stroke-miterlimit:4;stroke-dasharray:none;stop-color:#000000"
         d="M 36.254764,46.125 31.946429,50.433334 27.638096,46.125 26.07143,47.691667 30.379763,52 26.07143,56.308333 27.638096,57.875 31.946429,53.566667 36.254763,57.875 37.82143,56.308333 33.513096,52 37.82143,47.691667 Z" />
      <path
         id="path1555"
         style="fill:#ff00ff;fill-rule:evenodd;stroke:none;stroke-width:1;stroke-miterlimit:4;stroke-dasharray:none;stop-color:#000000"
         d="M 24.219049,46.125 19.910714,50.433334 15.602381,46.125 14.035715,47.691667 18.344048,52 14.035715,56.308333 15.602381,57.875 19.910714,53.566667 24.219048,57.875 25.785715,56.308333 21.477381,52 25.785715,47.691667 Z" />
      <path
         id="path1557"
         style="fill:#ff00ff;fill-rule:evenodd;stroke:none;stroke-width:1;stroke-miterlimit:4;stroke-dasharray:none;stop-color:#000000"
         d="M 12.183335,46.125 7.8750005,50.433334 3.5666674,46.125 2.000001,47.691667 6.308334,52 2.000001,56.308333 3.5666674,57.875 7.8750005,53.566667 12.183334,57.875 13.750001,56.308333 9.4416671,52 13.750001,47.691667 Z" />
    </g>
  </g>
  <g
     inkscape:groupmode="layer"
     id="layer2"
     inkscape:label="Vrstva 2"
     style="display:inline">
    <path
       id="path1715"
       style="fill:#ffff00;fill-rule:evenodd;stroke:#000000;stroke-width:1;stroke-miterlimit:4;stroke-dasharray:none;stop-color:#000000"
       d="m 80.5,16.5 v 40 h 8 v -40 z m 2,2 h 4 v 0.951172 l -2,3.357422 -2,-3.357422 z m 0,4.083984 L 83.566406,24.375 82.5,26.166016 Z m 4,0 v 3.582032 L 85.433594,24.375 Z m -2,3.357422 2,3.357422 v 2.277344 l -2,3.357422 -2,-3.357422 v -2.277344 z m -2,8.767578 L 83.566406,36.5 82.5,38.291016 Z m 4,0 v 3.582032 L 85.433594,36.5 Z m -2,3.357422 2,3.357422 v 2.277344 l -2,3.357422 -2,-3.357422 v -2.277344 z m -2,8.767578 L 83.566406,48.625 82.5,50.416016 Z m 4,0 v 3.582032 L 85.433594,48.625 Z m -2,3.357422 2,3.357422 V 54.5 h -4 V 53.548828 Z M 57.833984,16.5 v 40 h 8 v -40 z m 2,2 h 4 v 0.951172 l -2,3.357422 -2,-3.357422 z m 0,4.083984 1.066407,1.791016 -1.066407,1.791016 z m 4,0 v 3.582032 L 62.767578,24.375 Z m -2,3.357422 2,3.357422 v 2.277344 l -2,3.357422 -2,-3.357422 v -2.277344 z m -2,8.767578 1.066407,1.791016 -1.066407,1.791016 z m 4,0 v 3.582032 L 62.767578,36.5 Z m -2,3.357422 2,3.357422 v 2.277344 l -2,3.357422 -2,-3.357422 v -2.277344 z m -2,8.767578 1.066407,1.791016 -1.066407,1.791016 z m 4,0 v 3.582032 L 62.767578,48.625 Z m -2,3.357422 2,3.357422 V 54.5 h -4 V 53.548828 Z M 35.166016,16.5 v 40 h 8 v -40 z m 2,2 h 4 v 0.951172 l -2,3.357422 -2,-3.357422 z m 0,4.083984 1.066406,1.791016 -1.066406,1.791016 z m 4,0 v 3.582032 L 40.099609,24.375 Z m -2,3.357422 2,3.357422 v 2.277344 l -2,3.357422 -2,-3.357422 v -2.277344 z m -2,8.767578 1.066406,1.791016 -1.066406,1.791016 z m 4,0 v 3.582032 L 40.099609,36.5 Z m -2,3.357422 2,3.357422 v 2.277344 l -2,3.357422 -2,-3.357422 v -2.277344 z m -2,8.767578 1.066406,1.791016 -1.066406,1.791016 z m 4,0 v 3.582032 L 40.099609,48.625 Z m -2,3.357422 2,3.357422 V 54.5 h -4 V 53.548828 Z M 12.5,16.5 v 40 h 8 v -40 z m 2,2 h 4 v 0.951172 l -2,3.357422 -2,-3.357422 z m 0,4.083984 L 15.566406,24.375 14.5,26.166016 Z m 4,0 v 3.582032 L 17.433594,24.375 Z m -2,3.357422 2,3.357422 v 2.277344 l -2,3.357422 -2,-3.357422 v -2.277344 z m -2,8.767578 L 15.566406,36.5 14.5,38.291016 Z m 4,0 v 3.582032 L 17.433594,36.5 Z m -2,3.357422 2,3.357422 v 2.277344 l -2,3.357422 -2,-3.357422 v -2.277344 z m -2,8.767578 L 15.566406,48.625 14.5,50.416016 Z m 4,0 v 3.582032 L 17.433594,48.625 Z m -2,3.357422 2,3.357422 V 54.5 h -4 V 53.548828 Z M 4.5,8.5 h 92 v 4 h -92 z m -2,-2 h 96 v 8 h -96 z m -2,-2 v 12 h 100 v -12 z m 4,46 c -2.216,0 -4,1.784 -4,4 v 2 1 5 h 100 v -5 -1 -2 c 0,-2.216 -1.784,-4 -4,-4 h -8 v 3.441406 L 91.058594,56.5 l -4,4 H 86.15625 l -4,-4 H 80.5 V 54.84375 L 78.15625,52.5 H 80.5 v -2 H 65.833984 v 4.847656 L 66.986328,56.5 l -4,4 h -0.902344 l -4,-4 h -0.25 V 53.617188 L 56.517578,54.933594 54.083984,52.5 h 3.75 v -2 H 43.166016 v 2 h 3.75 l -2.433594,2.433594 -1.316406,-1.316406 V 56.5 h -0.25 l -4,4 h -0.902344 l -4,-4 1.152344,-1.152344 V 50.5 H 20.5 v 2 h 2.34375 L 20.5,54.84375 V 56.5 h -1.65625 l -4,4 H 13.941406 L 9.9414062,56.5 12.5,53.941406 V 50.5 Z m 1.8398438,2 H 10.808594 L 8.375,54.933594 5.9667969,52.525391 C 6.0914291,52.516991 6.2119296,52.5 6.3398438,52.5 Z m 19.6367182,0 h 0.904297 l 3.998047,4 -3.998047,4 h -0.904297 l -4,-4 z m 4.03711,0 h 4.865234 l -2.43164,2.433594 z m 20.035156,0 h 0.902344 l 4,4 -4,4 h -0.902344 l -4,-4 z m 16.072266,0 h 4.865234 l -2.433594,2.433594 z m 7.998047,0 h 0.904297 l 4,4 -4,4 h -0.904297 l -3.998047,-4 z m 16.072265,0 h 4.46875 c 0.127914,0 0.248415,0.01699 0.373047,0.02539 L 92.625,54.933594 Z M 3.6035156,53.294922 6.8085938,56.5 l -4,4 H 2.5 V 57.166016 56.5 55.166016 c 0,-0.73113 0.4219435,-1.390455 1.1035156,-1.871094 z m 93.7929684,0 C 98.078057,53.775561 98.5,54.434886 98.5,55.166016 V 56.5 57.166016 60.5 h -0.308594 l -4,-4 z M 8.375,58.066406 10.808594,60.5 H 5.9414062 Z m 12.035156,0 L 22.84375,60.5 h -4.867188 z m 12.03711,0 2.43164,2.433594 h -4.865234 z m 12.035156,0 L 46.916016,60.5 h -4.867188 z m 12.035156,0 L 58.951172,60.5 h -4.867188 z m 12.035156,0 L 70.986328,60.5 h -4.865234 z m 12.03711,0 L 83.023438,60.5 H 78.15625 Z m 12.035156,0 L 95.058594,60.5 H 90.191406 Z M 6.7675781,0.50000005 A 5.7669902,5.75 0 0 0 1.2753906,4.5 H 12.259766 A 5.7669902,5.75 0 0 0 6.7675781,0.50000005 Z m 12.4941409,0 A 5.7669902,5.75 0 0 0 13.769531,4.5 h 10.986328 a 5.7669902,5.75 0 0 0 -5.49414,-3.99999995 z m 12.496093,0 A 5.7669902,5.75 0 0 0 26.265625,4.5 H 37.25 A 5.7669902,5.75 0 0 0 31.757812,0.50000005 Z m 12.494141,0 A 5.7669902,5.75 0 0 0 38.759766,4.5 H 49.746094 A 5.7669902,5.75 0 0 0 44.251953,0.50000005 Z m 12.496094,0 A 5.7669902,5.75 0 0 0 51.255859,4.5 H 62.240234 A 5.7669902,5.75 0 0 0 56.748047,0.50000005 Z m 12.494141,0 A 5.7669902,5.75 0 0 0 63.75,4.5 h 10.986328 a 5.7669902,5.75 0 0 0 -5.49414,-3.99999995 z m 12.496093,0 A 5.7669902,5.75 0 0 0 76.246094,4.5 H 87.230469 A 5.7669902,5.75 0 0 0 81.738281,0.50000005 Z m 12.494141,0 A 5.7669902,5.75 0 0 0 88.740234,4.5 h 10.986328 a 5.7669902,5.75 0 0 0 -5.49414,-3.99999995 z" />
  </g>
</svg>
