<?xml version="1.0" encoding="UTF-8" standalone="no"?>
<svg
   xmlns:dc="http://purl.org/dc/elements/1.1/"
   xmlns:cc="http://creativecommons.org/ns#"
   xmlns:rdf="http://www.w3.org/1999/02/22-rdf-syntax-ns#"
   xmlns:svg="http://www.w3.org/2000/svg"
   xmlns="http://www.w3.org/2000/svg"
   xmlns:sodipodi="http://sodipodi.sourceforge.net/DTD/sodipodi-0.dtd"
   xmlns:inkscape="http://www.inkscape.org/namespaces/inkscape"
   width="45"
   height="70"
   viewBox="0 0 45 70.000003"
   version="1.1"
   id="svg4684"
   inkscape:version="1.0.1 (3bc2e813f5, 2020-09-07)"
   sodipodi:docname="sietovy-rack.svg">
  <defs
     id="defs4678" />
  <sodipodi:namedview
     id="base"
     pagecolor="#ffffff"
     bordercolor="#666666"
     borderopacity="1.0"
     inkscape:pageopacity="0.0"
     inkscape:pageshadow="2"
     inkscape:zoom="7.4757612"
     inkscape:cx="40.22182"
     inkscape:cy="42.147166"
     inkscape:document-units="px"
     inkscape:current-layer="layer1"
     inkscape:document-rotation="0"
     showgrid="false"
     units="px"
     inkscape:window-width="1199"
     inkscape:window-height="1001"
     inkscape:window-x="712"
     inkscape:window-y="-9"
     inkscape:window-maximized="0" />
  <metadata
     id="metadata4681">
    <rdf:RDF>
      <cc:Work
         rdf:about="">
        <dc:format>image/svg+xml</dc:format>
        <dc:type
           rdf:resource="http://purl.org/dc/dcmitype/StillImage" />
        <dc:title></dc:title>
      </cc:Work>
    </rdf:RDF>
  </metadata>
  <g
     inkscape:label="Vrstva 1"
     inkscape:groupmode="layer"
     id="layer1">
    <path
       id="path3330"
       style="fill:none;stroke:#000000;stroke-width:1;stroke-linecap:round;stroke-linejoin:round;stroke-miterlimit:4;stroke-dasharray:none"
       d="m 16.890819,61.052762 a 0.62316167,0.73418733 0 0 1 0.623154,0.73418 0.62316167,0.73418733 0 0 1 -0.623154,0.73419 0.62316167,0.73418733 0 0 1 -0.623165,-0.73419 0.62316167,0.73418733 0 0 1 0.623165,-0.73418 z m -1.861726,-1.09012 a 0.62316167,0.73418733 0 0 1 0.623164,0.73419 0.62316167,0.73418733 0 0 1 -0.623164,0.73418 0.62316167,0.73418733 0 0 1 -0.623164,-0.73418 0.62316167,0.73418733 0 0 1 0.623164,-0.73419 z m 1.861726,-2.18368 a 0.62316167,0.73418733 0 0 1 0.623154,0.73418 0.62316167,0.73418733 0 0 1 -0.623154,0.73419 0.62316167,0.73418733 0 0 1 -0.623165,-0.73419 0.62316167,0.73418733 0 0 1 0.623165,-0.73418 z m -1.861726,-1.09012 a 0.62316167,0.73418733 0 0 1 0.623164,0.73418 0.62316167,0.73418733 0 0 1 -0.623164,0.73419 0.62316167,0.73418733 0 0 1 -0.623164,-0.73419 0.62316167,0.73418733 0 0 1 0.623164,-0.73418 z m 1.861726,-9.37145 a 0.62316167,0.73418733 0 0 1 0.623154,0.73419 0.62316167,0.73418733 0 0 1 -0.623154,0.73418 0.62316167,0.73418733 0 0 1 -0.623165,-0.73418 0.62316167,0.73418733 0 0 1 0.623165,-0.73419 z m -1.861726,-1.09012 a 0.62316167,0.73418733 0 0 1 0.623164,0.73419 0.62316167,0.73418733 0 0 1 -0.623164,0.73419 0.62316167,0.73418733 0 0 1 -0.623164,-0.73419 0.62316167,0.73418733 0 0 1 0.623164,-0.73419 z m 1.861726,-1.95825 a 0.62316167,0.73418733 0 0 1 0.623154,0.73419 0.62316167,0.73418733 0 0 1 -0.623154,0.73419 0.62316167,0.73418733 0 0 1 -0.623165,-0.73419 0.62316167,0.73418733 0 0 1 0.623165,-0.73419 z m -1.861726,-1.09011 a 0.62316167,0.73418733 0 0 1 0.623164,0.73418 0.62316167,0.73418733 0 0 1 -0.623164,0.73419 0.62316167,0.73418733 0 0 1 -0.623164,-0.73419 0.62316167,0.73418733 0 0 1 0.623164,-0.73418 z m 1.861726,-1.9087 a 0.62316167,0.73418733 0 0 1 0.623154,0.73418 0.62316167,0.73418733 0 0 1 -0.623154,0.73419 0.62316167,0.73418733 0 0 1 -0.623165,-0.73419 0.62316167,0.73418733 0 0 1 0.623165,-0.73418 z m -1.861726,-1.09012 a 0.62316167,0.73418733 0 0 1 0.623164,0.73419 0.62316167,0.73418733 0 0 1 -0.623164,0.73418 0.62316167,0.73418733 0 0 1 -0.623164,-0.73418 0.62316167,0.73418733 0 0 1 0.623164,-0.73419 z m 1.861726,-7.90831 a 0.62316167,0.73418733 0 0 1 0.623154,0.73419 0.62316167,0.73418733 0 0 1 -0.623154,0.73419 0.62316167,0.73418733 0 0 1 -0.623165,-0.73419 0.62316167,0.73418733 0 0 1 0.623165,-0.73419 z m -1.862707,-1.09011 a 0.62316167,0.73418733 0 0 1 0.623164,0.73418 0.62316167,0.73418733 0 0 1 -0.623164,0.73419 0.62316167,0.73418733 0 0 1 -0.623164,-0.73419 0.62316167,0.73418733 0 0 1 0.623164,-0.73418 z m -7.9732506,24.81077 5.1711246,3.00971 m -5.1711246,-6.01844 5.1711246,3.00873 m -5.1711246,-13.53927 5.1711246,3.00873 m -5.1711246,-6.01844 5.1711246,3.00971 m -5.1711246,-6.01844 5.1711246,3.00873 m -5.1711246,-12.0349 5.1711246,3.00872 m 13.3674,-9.01527 L 1.75,21.768682 v 47.40427 h 23.780441 z m -19.920301,21.76271 19.918329,11.32335 v -2.89575 L 5.673085,40.004372 Z m 13.253341,-25.64956 -13.2532909,7.38907 19.9182589,11.58792 v -15.09906 c -1.9e-4,-3e-4 -3.9e-4,-5e-4 -5.9e-4,-7.9e-4 z m -13.253341,10.54945 19.918329,11.58795 v -3.16035 L 5.673085,24.904262 Z m 5.26932,3.0656 -5.2692699,2.90433 19.9182589,11.58793 v -5.96991 z m -5.26932,6.06463 19.918329,11.23713 v -2.80953 L 5.673085,34.034492 Z m 0,2.80953 19.918329,11.58795 v -3.16035 L 5.673085,37.194842 Z m 6.483881,6.84622 -6.4838309,3.68824 19.9182589,11.23623 v -7.28707 z m -6.483881,6.84863 19.918329,11.58796 v -3.51216 L 5.673085,50.538872 Z m 0,3.16036 19.918329,11.58696 v -3.15936 L 5.673085,53.699222 Z M 4.7682851,9.2787123 19.857759,0.4999923 40.664174,12.364442 25.591414,21.392592 4.7682851,9.2784123 Z m 1.508587,0.8774597 v 14.41154 l 1.5088273,-0.8412 v -12.69255 z m 0,18.25967 v 5.28606 l 1.5088273,-0.83152 v -3.57676 z m 0,15.09209 v 6.68762 l 1.5088273,-0.85824 v -4.97153 z m 34.3873019,-31.14399 0.01671,48.36654 -15.089474,8.76951 v -48.1069 z m 0.006,18.05334 a 2.5853643,7.5222806 0 0 1 2.579822,7.52226 2.5853643,7.5222806 0 0 1 -2.574438,7.52221 m -0.002,-5.74653 a 2.5853643,7.5222806 0 0 1 1.28328,6.49861 2.5853643,7.5222806 0 0 1 -1.278746,6.49091 m -0.01061,-30.30116 a 2.5853643,7.5222806 0 0 1 1.289306,6.50879 v 0 a 2.5853643,7.5222806 0 0 1 -1.284842,6.50126 M 4.7680349,9.2789723 V 57.385832 l 20.8231791,12.11421 v -1.05354 L 5.6729449,56.859552 v -3.16041 -3.16022 l 0.6037271,-0.34337 v -6.68762 l -0.6037271,-0.34318 v -3.16041 -2.80949 -3.16022 h 2.002e-4 l 0.6035269,-0.33273 v -5.28606 l -0.6037271,-0.35131 v -3.16022 l 0.6037271,-0.3366 v -14.41115 z m 3.0174643,1.7553697 v 12.69217 l 11.1403558,-6.21108 z m 0,18.25928 v 3.57676 l 3.1567258,-1.74009 14.648989,8.52235 z m 0,15.07216 v 4.97153 l 4.3712768,-2.48664 z" />
  </g>
</svg>
