<?xml version="1.0" encoding="UTF-8" standalone="no"?>
<svg
   xmlns:dc="http://purl.org/dc/elements/1.1/"
   xmlns:cc="http://creativecommons.org/ns#"
   xmlns:rdf="http://www.w3.org/1999/02/22-rdf-syntax-ns#"
   xmlns:svg="http://www.w3.org/2000/svg"
   xmlns="http://www.w3.org/2000/svg"
   xmlns:sodipodi="http://sodipodi.sourceforge.net/DTD/sodipodi-0.dtd"
   xmlns:inkscape="http://www.inkscape.org/namespaces/inkscape"
   id="svg2994"
   viewBox="0 0 45 45"
   sodipodi:version="0.32"
   inkscape:output_extension="org.inkscape.output.svg.inkscape"
   inkscape:version="1.0.1 (3bc2e813f5, 2020-09-07)"
   sodipodi:docname="tlaciaren-3.svg"
   version="1.1"
   width="45"
   height="45">
  <defs
     id="defs3" />
  <sodipodi:namedview
     id="base"
     bordercolor="#000000"
     inkscape:window-x="-9"
     inkscape:window-y="-9"
     pagecolor="#ffffff"
     inkscape:showpageshadow="true"
     inkscape:grid-bbox="true"
     inkscape:zoom="10.927711"
     inkscape:pageshadow="2"
     showgrid="false"
     borderopacity="1"
     inkscape:current-layer="layer1"
     inkscape:cx="26.472103"
     inkscape:guide-bbox="true"
     inkscape:cy="23.729352"
     inkscape:document-units="px"
     inkscape:window-width="1920"
     inkscape:pageopacity="0.0"
     inkscape:window-height="1001"
     showguides="true"
     inkscape:document-rotation="0"
     inkscape:pagecheckerboard="false"
     inkscape:window-maximized="1" />
  <g
     id="layer1"
     inkscape:label="Layer 1"
     inkscape:groupmode="layer">
    <path
       id="rect4845"
       style="color:#000000;opacity:1;fill:#ffff00;fill-opacity:1;stroke:#000000;stroke-width:1;stroke-miterlimit:4;stroke-dasharray:none"
       d="m 11.769315,19.607736 h 20.388301 v 1.158017 H 11.769315 Z m 0,-2.316033 h 20.388301 v 1.158016 H 11.769315 Z m 0,-4.632067 h 11.803753 v 1.158018 H 11.769315 Z m 0,-2.316032 H 32.157616 V 11.50162 H 11.769315 Z m 0,-2.3160328 h 20.388301 v 1.158016 H 11.769315 Z m 0,-2.3160336 H 32.157616 V 6.8695542 H 11.769315 Z M 8.4125071,29.597349 a 1.3752779,1.4841499 0 0 1 -1.375279,1.48415 1.3752779,1.4841499 0 0 1 -1.3752775,-1.48415 1.3752779,1.4841499 0 0 1 1.3752775,-1.48415 1.3752779,1.4841499 0 0 1 1.375279,1.48415 z M 5.9602587,26.990091 c -1.0174524,0 -1.8365567,0.883947 -1.8365567,1.981945 v 2.043321 c 0,1.097998 0.8191043,1.981945 1.8365567,1.981945 H 38.503207 c 1.017452,0 1.836557,-0.883947 1.836557,-1.981945 v -2.043321 c 0,-1.097998 -0.819105,-1.981945 -1.836557,-1.981945 z M 9.2722851,0.5003474 H 35.725569 c 0.698568,0 1.260856,0.59082 1.260856,1.3245394 V 23.484428 H 8.0114291 V 1.8248868 C 8.0114291,1.0908201 8.5737171,0.5 9.2722851,0.5 Z M 4.7126321,20.738611 c -0.5394315,0 -1.2005926,0.08943 -1.4691816,0.5677 l -2.0392493,3.634634 c -0.3028199,0.539636 0.037014,1.461091 1.00181,1.461091 H 42.599076 c 1.40572,0 1.30978,-1.168964 1.001809,-1.666911 l -1.896732,-3.071457 c -0.343382,-0.555848 -0.46821,-0.925056 -1.326664,-0.925057 h -3.391064 v 2.745766 H 8.0114801 V 20.738611 H 4.714728 Z M 4.3982567,20.186744 c -0.4276178,0 -1.0356587,0.269059 -1.3664857,0.755425 C 2.7010513,21.428536 1.4474826,23.72112 0.9799466,24.380031 0.6095234,24.902296 0.5,25.721412 0.5,26.293473 V 40.28014 c 0,0.901077 0.5723737,1.646778 1.3434314,1.850113 v -3.166451 c 0,-1.097998 0.8185007,-1.981295 1.8359532,-1.981295 H 41.253548 c 1.017454,0 1.835954,0.883297 1.835954,1.981295 v 3.186807 C 43.896321,41.975737 44.5,41.208576 44.5,40.28014 V 26.293473 c 0,-0.662386 -0.07574,-1.170304 -0.421263,-1.707624 -0.344455,-0.537319 -1.883873,-3.055101 -2.209013,-3.559995 -0.325139,-0.504895 -0.852753,-0.83911 -1.265885,-0.83911 h -3.617414 v 3.297633 H 8.0114801 V 20.186744 Z M 3.6799882,36.982619 H 41.253482 c 1.017452,0 1.836556,0.883947 1.836556,1.981945 v 3.553489 c 0,1.097997 -0.819104,1.981945 -1.836556,1.981945 H 3.6799882 c -1.0174525,0 -1.8365568,-0.883948 -1.8365568,-1.981945 v -3.553489 c 0,-1.097998 0.8191043,-1.981945 1.8365568,-1.981945 z" />
  </g>
  <metadata
     id="metadata67">
    <rdf:RDF>
      <cc:Work>
        <dc:format>image/svg+xml</dc:format>
        <dc:type
           rdf:resource="http://purl.org/dc/dcmitype/StillImage" />
        <cc:license
           rdf:resource="http://creativecommons.org/publicdomain/zero/1.0/" />
        <dc:publisher>
          <cc:Agent
             rdf:about="http://openclipart.org/">
            <dc:title>Openclipart</dc:title>
          </cc:Agent>
        </dc:publisher>
        <dc:title>tango printer</dc:title>
        <dc:date>2010-03-28T12:17:50</dc:date>
        <dc:description>&quot;Printer&quot; icon from Tango Project (http://tango.freedesktop.org/Tango_Desktop_Project )\nSince version 0.8.90 Tango Project icons are Public Domain. See the FAQ: http://tango.freedesktop.org/Frequently_Asked_Questions#Terms_of_Use.3F</dc:description>
        <dc:source>https://openclipart.org/detail/34897/tango-printer-by-warszawianka</dc:source>
        <dc:creator>
          <cc:Agent>
            <dc:title>warszawianka</dc:title>
          </cc:Agent>
        </dc:creator>
        <dc:subject>
          <rdf:Bag>
            <rdf:li>device</rdf:li>
            <rdf:li>externalsource</rdf:li>
            <rdf:li>hardware</rdf:li>
            <rdf:li>icon</rdf:li>
            <rdf:li>output</rdf:li>
            <rdf:li>printer</rdf:li>
            <rdf:li>tango</rdf:li>
          </rdf:Bag>
        </dc:subject>
      </cc:Work>
      <cc:License
         rdf:about="http://creativecommons.org/publicdomain/zero/1.0/">
        <cc:permits
           rdf:resource="http://creativecommons.org/ns#Reproduction" />
        <cc:permits
           rdf:resource="http://creativecommons.org/ns#Distribution" />
        <cc:permits
           rdf:resource="http://creativecommons.org/ns#DerivativeWorks" />
      </cc:License>
    </rdf:RDF>
  </metadata>
</svg>
