<?xml version="1.0" encoding="UTF-8" standalone="no"?>
<svg
   xmlns:dc="http://purl.org/dc/elements/1.1/"
   xmlns:cc="http://creativecommons.org/ns#"
   xmlns:rdf="http://www.w3.org/1999/02/22-rdf-syntax-ns#"
   xmlns:svg="http://www.w3.org/2000/svg"
   xmlns="http://www.w3.org/2000/svg"
   width="45"
   height="60"
   viewBox="0 0 45 60.000002"
   version="1.1"
   id="svg1231">
  <defs
     id="defs1225" />
  <metadata
     id="metadata1228">
    <rdf:RDF>
      <cc:Work
         rdf:about="">
        <dc:format>image/svg+xml</dc:format>
        <dc:type
           rdf:resource="http://purl.org/dc/dcmitype/StillImage" />
        <dc:title></dc:title>
      </cc:Work>
    </rdf:RDF>
  </metadata>
  <g
     id="layer1">
    <path
       id="rect1243"
       style="fill:#ffff00;fill-rule:nonzero;stroke:#000000;stroke-width:0.5;stroke-miterlimit:4;stroke-dasharray:none;stop-color:#000000"
       d="m 8.4476882,32.51856 -5.7374345,7.007776 a 2.3131712,2.1861674 0 0 1 1.2649296,0.453526 2.3131712,2.1861674 0 0 1 0.7787422,1.042315 L 10.493466,34.014401 Z M 36.032592,17.162322 v 1.466003 h 3.987353 V 17.162322 Z M 20.935429,5.5309734 a 2.116735,2.0005165 0 0 1 0.927018,2.6900822 2.116735,2.0005165 0 0 1 -2.846361,0.8761203 2.116735,2.0005165 0 0 1 -0.927017,-2.6900826 2.116735,2.0005165 0 0 1 2.84636,-0.8761199 z m 7.945135,17.9004336 a 2.116735,2.0005165 0 0 1 2.001512,-2.103785 2.116735,2.0005165 0 0 1 2.226001,1.89162 2.116735,2.0005165 0 0 1 -2.001511,2.103783 2.116735,2.0005165 0 0 1 -2.226002,-1.891618 z M 41.310817,7.9782825 a 2.116735,2.0005165 0 0 1 -2.928531,-0.5862992 2.116735,2.0005165 0 0 1 0.620359,-2.7677405 2.116735,2.0005165 0 0 1 2.928532,0.5862988 2.116735,2.0005165 0 0 1 -0.62036,2.7677409 z M 38.041571,6.3532918 33.029016,9.4344227 a 4.0410398,3.819168 0 0 1 0.734164,0.7968463 4.0410398,3.819168 0 0 1 0.473037,0.957355 L 39.248772,8.1074928 A 2.116735,2.0005165 0 0 1 38.382281,7.3919863 2.116735,2.0005165 0 0 1 38.041571,6.3532918 Z m -6.353227,9.5716032 a 4.0410398,3.819168 0 0 1 -2.212698,0.111984 l 0.317522,5.642052 a 2.116735,2.0005165 0 0 1 1.088881,-0.351353 2.116735,2.0005165 0 0 1 1.122053,0.240453 z M 27.413142,9.7162681 22.084828,7.1542638 A 2.116735,2.0005165 0 0 1 21.862437,8.221124 2.116735,2.0005165 0 0 1 21.081092,9.0193657 l 5.328316,2.5620043 a 4.0410398,3.819168 0 0 1 1.003734,-1.8651019 z m 5.165715,5.7988689 a 4.0410398,3.819168 0 0 1 -5.590831,-1.119298 4.0410398,3.819168 0 0 1 1.184323,-5.2838682 4.0410398,3.819168 0 0 1 5.590831,1.1192982 4.0410398,3.819168 0 0 1 -1.184323,5.283868 z m 4.826144,3.113188 v 3.455155 h 1.240597 V 18.628325 Z M 3.8994138,3.3417079 V 11.616572 H 26.40506 a 4.0410398,3.819168 0 0 1 0.01473,-0.07957 4.0410398,3.819168 0 0 0 -0.01056,0.04376 L 21.082213,9.0187373 a 2.116735,2.0005165 0 0 1 -0.0022,0 2.116735,2.0005165 0 0 1 -2.064717,0.077575 2.116735,2.0005165 0 0 1 -0.926072,-2.6893304 2.116735,2.0005165 0 0 1 2.845565,-0.875226 2.116735,2.0005165 0 0 1 1.151275,1.6251355 l 5.327018,2.5600357 a 4.0410398,3.819168 0 0 1 0.759799,-0.6047016 4.0410398,3.819168 0 0 1 4.855561,0.322243 l 5.013503,-3.0811876 a 2.116735,2.0005165 0 0 1 0.959748,-1.7285713 2.116735,2.0005165 0 0 1 1.203893,-0.3242315 2.116735,2.0005165 0 0 1 1.725861,0.9110306 2.116735,2.0005165 0 0 1 -0.620889,2.7669077 2.116735,2.0005165 0 0 1 -2.062614,0.1292947 l -5.01131,3.0811939 a 4.0410398,3.819168 0 0 1 -0.917654,3.739602 v 2.233815 h 9.037618 C 42.596922,11.64312 43.41952,9.478611 43.41952,3.3417079 Z M 38.395582,7.4095196 A 2.116735,2.0005165 0 0 0 38.547121,7.600478 2.116735,2.0005165 0 0 1 38.395582,7.4095196 Z M 2.1266485,0.25 H 44.749999 V 3.3417077 H 2.1266485 Z M 23.398928,26.917025 h 19.229246 v 5.001291 H 23.398928 Z M 4.3883782,43.04604 A 2.3131712,2.1861674 0 0 1 1.1433372,43.437119 2.3131712,2.1861674 0 0 1 0.72953956,40.370246 2.3131712,2.1861674 0 0 1 3.9745805,39.979168 2.3131712,2.1861674 0 0 1 4.3883782,43.04604 Z M 4.0698952,29.272267 v 8.595117 l 4.377793,-5.348824 2.0457778,1.495841 -3.1717966,3.874864 H 17.605274 v -8.616998 z m 20.1946748,2.64557 -6.659296,0.316274 V 35.77281 L 36.24457,34.440079 V 31.917837 Z M 2.692429,54.606077 h 40.352773 v 5.143924 H 2.692429 Z M 6.2019648,11.616572 V 29.272267 H 13.722086 V 11.616572 Z m 1.1179095,26.2721 -1.1172588,1.363281 V 54.605469 H 13.722626 V 37.888672 Z" />
  </g>
</svg>
